<svg id="svg" version="1.1" xmlns="http://www.w3.org/2000/svg" xmlns:xlink="http://www.w3.org/1999/xlink" width="400" height="400" viewBox="0, 0, 400,400"><g id="svgg"><path id="path0" d="M66.700 160.667 C 66.095 160.769,65.397 161.246,65.149 161.727 C 64.579 162.831,61.767 165.600,61.215 165.600 C 60.987 165.600,60.800 165.827,60.800 166.105 C 60.800 166.383,59.225 168.238,57.300 170.226 C 47.852 179.987,42.604 185.633,42.640 185.997 C 42.662 186.219,42.707 186.766,42.740 187.213 C 42.800 188.024,42.898 188.026,70.016 187.913 L 97.233 187.800 98.516 186.331 C 99.943 184.699,100.230 184.582,104.142 184.033 C 105.650 183.822,107.180 183.381,107.542 183.054 C 107.904 182.727,109.100 182.242,110.200 181.976 C 111.300 181.710,112.740 181.179,113.400 180.795 C 114.060 180.412,115.546 179.877,116.703 179.608 C 117.859 179.339,118.939 178.893,119.103 178.618 C 119.266 178.342,119.850 177.881,120.400 177.594 C 123.622 175.909,128.800 170.256,128.800 168.423 C 128.800 166.857,128.014 164.800,127.415 164.800 C 127.136 164.800,126.448 164.438,125.886 163.997 C 125.273 163.514,123.525 162.959,121.508 162.608 C 119.662 162.286,117.442 161.710,116.575 161.329 C 115.049 160.657,70.271 160.063,66.700 160.667 M146.212 164.263 C 140.282 170.416,139.732 170.962,138.839 171.588 C 138.377 171.912,138.000 172.374,138.000 172.616 C 138.000 172.858,137.595 173.439,137.100 173.908 C 136.605 174.377,135.966 174.995,135.680 175.280 C 135.394 175.566,134.854 176.080,134.480 176.422 C 134.106 176.763,132.630 178.337,131.200 179.919 C 129.770 181.501,128.407 182.796,128.171 182.798 C 127.508 182.801,125.600 185.954,125.600 187.047 L 125.600 188.022 152.805 187.911 L 180.011 187.800 181.251 186.473 C 182.754 184.865,183.480 184.569,187.193 184.055 C 188.779 183.835,190.377 183.383,190.745 183.050 C 191.112 182.717,192.304 182.246,193.394 182.001 C 194.483 181.757,195.920 181.222,196.587 180.812 C 197.254 180.403,198.488 179.940,199.329 179.784 C 200.169 179.628,201.365 179.073,201.986 178.550 C 202.607 178.028,203.282 177.600,203.486 177.600 C 203.689 177.600,204.592 176.970,205.492 176.200 C 206.391 175.430,207.208 174.800,207.308 174.800 C 208.017 174.800,210.391 171.808,211.128 169.985 C 212.600 166.345,210.408 163.533,205.497 162.763 C 204.124 162.547,201.920 161.982,200.600 161.506 C 198.261 160.664,197.584 160.638,174.104 160.484 L 150.007 160.327 146.212 164.263 M233.300 160.670 C 232.585 160.769,232.000 160.987,232.000 161.154 C 232.000 161.320,231.200 162.254,230.223 163.228 C 227.953 165.492,227.392 166.080,217.132 176.955 C 215.079 179.131,212.481 181.850,211.358 182.998 C 210.235 184.146,209.185 185.604,209.026 186.239 C 208.867 186.873,208.526 187.529,208.268 187.696 C 208.011 187.863,220.278 187.955,235.529 187.900 L 263.258 187.800 264.329 186.540 C 265.780 184.833,266.562 184.502,270.195 184.051 C 271.910 183.838,273.423 183.496,273.557 183.292 C 273.965 182.667,275.493 182.000,276.514 182.000 C 277.046 182.000,278.288 181.571,279.275 181.046 C 280.261 180.522,281.683 179.965,282.434 179.809 C 283.185 179.652,284.430 179.113,285.200 178.610 C 285.970 178.106,286.901 177.538,287.268 177.347 C 288.353 176.784,293.200 172.325,293.200 171.891 C 293.200 171.671,293.650 171.075,294.200 170.565 C 297.167 167.815,293.679 163.333,288.021 162.625 C 286.823 162.474,284.843 161.975,283.621 161.514 C 281.488 160.710,238.228 159.984,233.300 160.670 M100.500 170.336 C 103.232 172.235,103.146 173.337,100.025 176.439 C 98.718 177.738,97.387 178.800,97.067 178.800 C 96.747 178.800,96.385 179.062,96.262 179.383 C 96.139 179.704,94.994 180.266,93.719 180.632 C 92.444 180.997,91.148 181.500,90.839 181.748 C 89.868 182.531,71.470 182.607,70.826 181.831 C 70.098 180.954,70.581 179.456,72.106 177.860 C 81.694 167.818,79.464 168.869,91.000 168.958 L 98.600 169.016 100.500 170.336 M183.071 169.961 C 187.292 172.370,183.557 178.640,176.697 180.663 C 175.544 181.003,174.348 181.488,174.039 181.741 C 173.081 182.526,154.276 182.614,153.630 181.836 C 152.808 180.845,154.783 177.959,158.956 174.056 C 159.813 173.255,161.228 171.845,162.101 170.922 C 164.099 168.811,163.844 168.856,173.400 168.938 C 181.030 169.004,181.477 169.052,183.071 169.961 M266.746 170.400 C 268.851 171.836,269.255 172.725,268.200 173.600 C 267.870 173.874,267.600 174.340,267.600 174.635 C 267.600 175.985,262.554 179.926,259.945 180.614 C 258.851 180.903,257.668 181.378,257.317 181.670 C 256.376 182.452,238.105 182.669,237.076 181.910 C 236.197 181.261,237.471 177.600,238.577 177.600 C 238.909 177.600,239.483 177.140,239.852 176.577 C 240.849 175.055,242.661 173.200,243.150 173.200 C 243.386 173.200,243.852 172.673,244.185 172.028 C 244.519 171.384,245.129 170.749,245.543 170.618 C 245.956 170.487,246.627 170.012,247.034 169.562 C 247.742 168.780,248.137 168.750,256.233 168.872 L 264.693 169.000 266.746 170.400 M37.833 191.547 C 37.191 191.686,36.591 192.025,36.500 192.300 C 36.304 192.890,57.800 193.047,58.164 192.458 C 58.852 191.345,42.210 190.600,37.833 191.547 M82.830 191.764 C 82.003 192.760,82.907 192.837,95.040 192.812 C 107.181 192.787,108.412 192.676,106.754 191.757 C 105.313 190.959,83.493 190.965,82.830 191.764 M120.487 191.735 C 119.986 192.014,119.701 192.367,119.854 192.521 C 120.400 193.067,141.683 192.850,141.500 192.300 C 141.127 191.176,122.401 190.673,120.487 191.735 M166.615 191.730 C 164.538 192.636,166.009 192.775,178.192 192.818 C 189.508 192.859,191.753 192.660,190.335 191.745 C 189.406 191.146,167.984 191.131,166.615 191.730 M204.030 191.551 C 202.499 191.979,202.523 192.799,204.067 192.807 C 224.508 192.922,225.343 192.878,223.823 191.767 C 222.996 191.162,206.082 190.977,204.030 191.551 M249.476 191.774 C 248.189 192.750,249.364 192.858,261.383 192.869 C 273.324 192.879,274.908 192.730,273.154 191.757 C 271.744 190.976,250.509 190.991,249.476 191.774 M32.226 196.758 C 31.787 197.468,33.414 197.600,42.600 197.600 C 51.730 197.600,53.200 197.483,53.200 196.757 C 53.200 196.288,32.516 196.289,32.226 196.758 M82.900 196.900 C 83.029 197.284,85.593 197.400,93.914 197.400 C 102.058 197.400,104.885 197.275,105.260 196.900 C 105.660 196.500,103.457 196.400,94.247 196.400 C 85.214 196.400,82.769 196.508,82.900 196.900 M116.100 196.900 C 116.433 197.902,136.800 197.779,136.800 196.775 C 136.800 196.551,132.602 196.400,126.367 196.400 C 118.198 196.400,115.969 196.509,116.100 196.900 M165.600 196.782 C 165.600 197.789,187.966 197.905,188.300 196.900 C 188.431 196.508,186.002 196.400,177.033 196.400 C 170.040 196.400,165.600 196.548,165.600 196.782 M198.800 197.007 C 198.800 197.827,219.227 197.722,219.500 196.900 C 219.631 196.509,217.402 196.400,209.233 196.400 C 200.174 196.400,198.800 196.480,198.800 197.007 M249.478 196.656 C 248.341 197.793,269.528 198.144,271.024 197.013 C 271.712 196.492,270.555 196.424,260.767 196.413 C 254.698 196.406,249.618 196.515,249.478 196.656 M26.332 203.064 C 25.002 203.926,24.518 204.390,21.814 207.400 C 21.023 208.280,20.091 209.304,19.743 209.677 C 18.551 210.949,17.964 212.411,18.553 212.637 C 20.180 213.262,70.647 212.579,72.423 211.909 C 73.425 211.530,75.998 211.025,78.140 210.786 C 80.460 210.528,82.554 210.056,83.318 209.620 C 84.023 209.218,85.590 208.669,86.800 208.399 C 88.010 208.130,89.392 207.664,89.872 207.364 C 90.351 207.064,91.501 206.697,92.426 206.549 C 93.381 206.397,94.647 205.811,95.354 205.194 C 96.039 204.597,97.025 203.975,97.545 203.813 C 103.648 201.906,80.129 201.520,70.707 203.372 C 63.076 204.872,51.108 204.807,49.459 203.257 C 47.945 201.833,28.480 201.670,26.332 203.064 M111.052 202.314 C 109.832 202.472,102.400 209.637,102.400 210.656 C 102.400 210.940,102.021 211.375,101.557 211.623 C 99.504 212.722,102.101 212.830,127.636 212.709 C 151.038 212.598,153.990 212.513,155.600 211.908 C 156.590 211.536,159.086 211.051,161.147 210.831 C 163.209 210.610,165.293 210.169,165.778 209.851 C 166.264 209.532,167.908 208.960,169.431 208.578 C 170.954 208.197,172.560 207.650,173.000 207.363 C 173.440 207.075,174.563 206.719,175.496 206.570 C 176.451 206.417,177.661 205.864,178.265 205.305 C 178.855 204.758,179.855 204.130,180.487 203.910 C 185.896 202.024,164.398 201.268,155.752 203.039 C 150.005 204.217,148.657 204.341,141.331 204.371 C 134.117 204.400,134.052 204.392,132.858 203.388 L 131.656 202.376 121.928 202.270 C 116.577 202.212,111.683 202.232,111.052 202.314 M193.338 202.679 C 192.712 202.943,191.607 203.753,190.882 204.479 C 188.114 207.252,185.200 210.502,185.200 210.816 C 185.200 210.996,184.917 211.426,184.570 211.773 C 184.039 212.304,184.030 212.436,184.509 212.620 C 186.165 213.256,237.014 212.594,238.600 211.916 C 239.480 211.540,241.966 211.043,244.125 210.812 C 246.283 210.580,248.713 210.067,249.525 209.670 C 250.336 209.273,251.990 208.709,253.200 208.415 C 254.410 208.121,255.760 207.647,256.200 207.362 C 256.640 207.077,257.900 206.644,259.000 206.399 C 260.100 206.154,261.450 205.535,262.000 205.022 C 262.550 204.509,263.425 203.961,263.945 203.804 C 270.190 201.912,246.065 201.549,236.662 203.392 C 229.015 204.892,217.705 204.896,215.927 203.400 C 214.564 202.253,214.739 202.269,202.738 202.228 C 197.161 202.209,194.107 202.356,193.338 202.679 M284.600 220.688 C 283.720 220.772,282.797 221.106,282.549 221.430 C 282.300 221.755,281.204 222.252,280.112 222.535 C 277.989 223.086,277.620 223.321,274.982 225.809 C 272.449 228.199,272.958 230.511,276.123 230.993 C 282.970 232.037,280.713 236.400,273.327 236.400 C 272.477 236.400,271.911 235.967,270.484 234.229 C 269.068 232.502,264.800 234.532,264.800 236.932 C 264.800 239.950,272.715 241.154,276.287 238.678 C 277.143 238.085,278.195 237.600,278.625 237.600 C 283.280 237.600,288.758 230.066,284.800 229.107 C 279.214 227.753,278.399 225.188,283.085 223.710 L 285.570 222.926 286.885 224.002 C 290.360 226.844,293.831 225.798,292.865 222.200 C 292.429 220.575,290.142 220.157,284.600 220.688 M376.967 220.761 C 375.848 220.898,374.642 221.301,374.286 221.657 C 373.930 222.012,372.995 222.424,372.207 222.572 C 371.420 222.720,370.145 223.269,369.374 223.792 C 368.604 224.314,367.845 224.803,367.687 224.877 C 363.802 226.698,364.688 231.200,368.931 231.200 C 370.068 231.200,372.400 232.088,372.400 232.520 C 372.400 236.020,365.803 237.712,363.212 234.877 C 361.566 233.076,358.929 233.122,358.049 234.967 C 357.286 236.565,357.858 238.808,359.200 239.484 C 361.266 240.525,368.164 239.881,368.655 238.601 C 368.771 238.299,369.733 237.866,370.794 237.639 C 373.792 236.996,378.400 233.460,378.400 231.802 C 378.400 231.507,378.505 230.993,378.632 230.660 C 378.880 230.015,377.011 228.800,375.773 228.800 C 374.691 228.800,371.209 226.042,371.462 225.384 C 372.241 223.354,378.432 222.955,380.219 224.819 C 381.760 226.429,383.209 226.388,384.496 224.700 L 385.488 223.400 384.538 221.900 C 383.501 220.262,382.404 220.097,376.967 220.761 M204.072 221.074 C 201.268 222.195,186.843 237.692,187.357 239.031 C 188.053 240.847,190.165 239.475,196.331 233.200 C 205.493 223.878,208.383 219.351,204.072 221.074 M211.665 222.045 C 208.679 224.241,197.564 235.880,196.634 237.784 C 194.952 241.230,198.487 239.933,202.515 235.626 C 205.987 231.914,208.386 229.600,208.765 229.600 C 208.996 229.600,209.298 229.150,209.436 228.600 C 209.774 227.251,210.248 227.339,210.541 228.807 C 210.696 229.581,210.490 230.756,209.968 232.082 C 208.339 236.213,208.867 239.579,211.146 239.594 C 212.046 239.600,216.531 236.155,217.370 234.814 C 217.573 234.488,219.193 232.723,220.970 230.891 C 222.746 229.058,225.116 226.615,226.236 225.460 C 228.388 223.242,229.244 221.345,228.263 220.969 C 227.188 220.556,223.680 223.405,218.245 229.103 C 217.375 230.015,216.450 230.641,216.145 230.524 C 215.415 230.243,215.455 226.701,216.212 224.600 C 217.670 220.551,215.417 219.285,211.665 222.045 M234.792 221.771 C 230.648 224.491,218.482 237.795,218.972 239.072 C 219.325 239.991,229.590 239.694,230.659 238.734 C 231.066 238.367,232.120 237.942,233.000 237.789 C 233.880 237.636,235.352 237.081,236.271 236.555 C 237.190 236.030,238.147 235.600,238.397 235.600 C 238.958 235.600,246.800 228.889,246.800 228.409 C 246.800 228.218,247.242 227.536,247.783 226.893 C 248.993 225.455,249.203 223.275,248.269 221.849 L 247.582 220.800 241.891 220.824 C 236.639 220.845,236.091 220.918,234.792 221.771 M257.463 221.714 C 254.560 223.975,244.778 234.079,244.236 235.376 C 243.560 236.993,244.176 239.275,245.418 239.751 C 247.464 240.537,254.112 239.728,254.528 238.643 C 254.643 238.345,255.426 237.973,256.268 237.818 C 259.634 237.195,261.730 235.455,271.270 225.365 C 273.327 223.190,273.971 221.145,272.681 220.881 C 271.659 220.672,269.025 222.911,262.600 229.452 C 256.682 235.477,255.900 236.000,252.803 236.000 C 248.870 236.000,249.206 234.340,254.149 229.340 C 258.390 225.052,259.600 223.717,259.600 223.328 C 259.600 223.097,259.973 222.434,260.429 221.854 L 261.258 220.800 259.929 220.814 C 259.185 220.822,258.100 221.218,257.463 221.714 M298.771 222.041 C 297.885 223.285,298.121 223.975,299.438 223.994 C 299.679 223.997,300.203 224.362,300.604 224.804 C 301.384 225.666,301.490 225.532,293.788 233.411 C 291.247 236.010,289.515 238.402,289.743 238.996 C 290.065 239.836,292.003 239.754,292.986 238.858 C 294.786 237.218,301.900 230.018,303.163 228.558 C 306.334 224.894,307.826 224.000,310.767 224.000 C 313.733 224.000,314.621 223.562,315.021 221.900 L 315.287 220.800 307.471 220.800 L 299.654 220.800 298.771 222.041 M320.550 221.385 C 320.427 221.706,320.004 222.072,319.610 222.197 C 319.216 222.322,318.334 222.959,317.650 223.612 C 316.967 224.265,316.226 224.800,316.004 224.800 C 315.782 224.800,315.600 225.001,315.600 225.246 C 315.600 225.491,315.124 226.166,314.541 226.746 C 305.784 235.465,303.159 238.879,304.810 239.403 C 305.952 239.765,307.193 238.929,311.053 235.200 L 314.571 231.800 317.186 231.800 L 319.800 231.800 319.924 233.294 C 320.018 234.427,319.824 235.015,319.124 235.722 C 317.644 237.218,317.093 239.112,318.049 239.416 C 319.424 239.852,321.156 239.186,322.073 237.869 C 322.559 237.171,323.326 236.212,323.778 235.738 C 325.353 234.085,325.805 233.460,326.600 231.835 C 327.130 230.751,327.901 229.955,328.886 229.474 C 329.703 229.075,330.937 228.220,331.628 227.574 C 332.319 226.928,333.022 226.400,333.189 226.400 C 334.953 226.400,335.554 222.178,333.936 221.152 C 332.925 220.511,320.805 220.722,320.550 221.385 M342.600 221.600 C 342.202 222.040,341.686 222.400,341.453 222.400 C 341.033 222.400,340.463 222.911,337.400 226.039 C 332.634 230.905,330.880 232.743,329.758 234.049 C 329.075 234.844,328.197 235.674,327.806 235.893 C 326.437 236.659,325.944 239.099,327.099 239.389 C 328.736 239.800,328.981 239.583,341.104 227.000 C 344.383 223.597,345.731 220.800,344.094 220.800 C 343.670 220.800,342.998 221.160,342.600 221.600 M351.693 221.600 C 351.418 222.040,350.954 222.400,350.661 222.400 C 349.586 222.400,336.340 236.293,335.921 237.859 C 335.484 239.494,335.887 239.587,343.453 239.594 L 350.305 239.600 351.406 238.157 C 352.831 236.289,352.414 236.014,348.144 236.006 C 345.637 236.001,344.688 235.838,344.018 235.295 L 343.147 234.590 344.674 232.950 L 346.200 231.311 351.400 231.094 C 357.018 230.861,358.000 230.652,358.000 229.689 C 358.000 229.345,358.277 228.757,358.616 228.382 C 359.190 227.748,358.999 227.690,355.783 227.521 C 352.292 227.338,351.470 226.952,351.704 225.610 C 351.914 224.409,353.702 224.012,358.931 224.006 L 364.062 224.000 365.257 222.804 C 367.103 220.958,366.616 220.800,359.073 220.800 C 352.626 220.800,352.161 220.850,351.693 221.600 M398.267 223.067 C 397.825 223.509,397.967 225.407,398.480 225.920 C 399.468 226.908,400.000 226.446,400.000 224.600 C 400.000 222.858,399.191 222.142,398.267 223.067 M390.000 224.600 C 390.000 225.370,390.180 226.000,390.400 226.000 C 390.620 226.000,390.800 225.370,390.800 224.600 C 390.800 223.830,390.620 223.200,390.400 223.200 C 390.180 223.200,390.000 223.830,390.000 224.600 M242.591 224.790 C 244.044 226.396,241.138 230.076,235.079 234.302 C 231.279 236.953,224.935 236.091,227.681 233.298 C 228.274 232.694,230.534 230.355,232.702 228.100 L 236.645 224.000 239.261 224.000 C 241.357 224.000,242.018 224.157,242.591 224.790 M328.571 224.629 C 329.424 225.482,329.363 225.890,328.300 226.424 C 327.805 226.672,327.010 227.337,326.534 227.902 C 325.470 229.162,319.747 229.523,318.638 228.400 C 317.969 227.722,319.993 225.101,321.726 224.403 C 323.280 223.777,327.871 223.928,328.571 224.629 " stroke="none" fill="#45548a" fill-rule="evenodd"></path><path id="path1" d="M0.000 113.643 L 0.000 227.287 1.100 226.991 C 3.479 226.350,5.495 226.032,7.600 225.963 C 8.810 225.923,9.350 225.809,8.800 225.709 C 5.068 225.030,5.807 222.109,10.282 219.846 C 11.225 219.369,11.632 218.837,11.820 217.833 C 12.111 216.285,13.312 215.020,14.832 214.662 C 15.693 214.459,15.837 214.234,15.701 213.307 C 15.518 212.059,16.087 211.247,19.700 207.606 C 20.965 206.331,22.000 205.168,22.000 205.021 C 22.000 204.776,24.772 202.025,26.110 200.943 C 26.421 200.691,27.228 200.199,27.904 199.850 C 28.694 199.441,29.301 198.705,29.602 197.793 C 30.487 195.112,30.920 195.015,42.625 194.871 C 57.094 194.693,58.666 195.358,53.300 199.388 C 52.145 200.255,51.200 201.093,51.200 201.251 C 51.200 202.964,72.033 202.521,74.231 200.761 C 74.468 200.572,75.816 200.188,77.226 199.908 C 79.761 199.406,79.792 199.384,80.032 197.896 C 80.312 196.166,80.211 196.300,81.880 195.451 C 84.041 194.352,105.512 194.486,106.714 195.605 C 107.948 196.755,107.220 198.101,104.531 199.639 C 103.359 200.310,102.400 200.996,102.400 201.165 C 102.400 201.891,99.737 204.499,98.444 205.039 C 97.668 205.364,96.703 205.983,96.300 206.415 C 95.898 206.847,95.240 207.200,94.838 207.200 C 94.437 207.200,93.657 207.554,93.107 207.987 C 92.556 208.420,91.227 208.980,90.153 209.230 C 89.079 209.481,87.100 210.105,85.756 210.617 C 84.412 211.129,82.162 211.676,80.756 211.833 C 78.823 212.048,77.985 212.347,77.319 213.059 C 76.618 213.808,76.006 214.006,74.319 214.028 C 73.154 214.044,71.840 214.197,71.400 214.369 C 70.613 214.677,97.726 214.493,98.700 214.184 C 98.975 214.097,99.201 213.524,99.203 212.913 C 99.208 210.775,108.586 200.521,111.229 199.763 C 112.347 199.443,112.598 199.130,112.968 197.594 C 113.576 195.069,114.575 194.872,127.011 194.832 C 140.671 194.788,142.172 195.949,134.543 200.659 C 130.934 202.887,153.639 202.802,157.915 200.571 C 158.512 200.260,159.450 199.991,160.000 199.974 C 161.758 199.921,162.512 199.385,163.366 197.583 C 164.669 194.834,164.778 194.813,177.478 194.806 L 188.755 194.800 189.878 195.771 L 191.000 196.742 189.600 198.206 C 188.830 199.011,187.525 200.018,186.700 200.443 C 185.875 200.868,185.200 201.386,185.200 201.594 C 185.200 202.296,182.723 204.800,182.028 204.800 C 181.649 204.800,180.914 205.253,180.394 205.807 C 179.874 206.360,178.717 207.023,177.824 207.279 C 176.931 207.536,175.889 208.061,175.508 208.447 C 175.128 208.833,173.958 209.276,172.908 209.432 C 171.859 209.588,169.875 210.139,168.500 210.655 C 167.125 211.171,165.010 211.709,163.799 211.852 C 162.294 212.029,161.275 212.409,160.578 213.055 C 159.770 213.804,159.086 214.008,157.279 214.040 C 156.026 214.062,154.550 214.239,154.000 214.434 C 153.384 214.653,155.595 214.714,159.764 214.594 C 163.484 214.487,170.009 214.400,174.264 214.400 L 182.000 214.400 182.000 213.009 C 182.000 211.967,182.251 211.454,183.000 210.963 C 183.550 210.603,184.000 210.088,184.000 209.820 C 184.000 209.552,184.495 208.860,185.100 208.283 C 186.796 206.665,186.688 206.775,190.467 202.840 C 191.494 201.771,193.112 200.467,194.064 199.942 C 195.335 199.241,195.848 198.682,195.997 197.836 C 196.461 195.203,197.292 195.014,208.984 194.876 C 224.204 194.697,225.210 195.322,218.200 200.598 C 215.346 202.746,235.885 203.128,239.995 201.003 C 240.664 200.657,242.332 200.147,243.702 199.870 C 246.152 199.374,246.196 199.342,246.436 197.862 C 246.906 194.976,247.754 194.800,261.184 194.800 C 275.266 194.800,276.772 195.521,270.999 199.500 C 269.944 200.227,268.464 201.613,267.712 202.579 C 266.905 203.615,265.692 204.596,264.758 204.970 C 263.886 205.319,263.071 205.871,262.946 206.198 C 262.820 206.524,261.990 206.987,261.101 207.227 C 260.211 207.466,259.015 208.007,258.442 208.429 C 257.869 208.850,256.397 209.380,255.170 209.605 C 253.944 209.830,252.266 210.358,251.442 210.778 C 250.618 211.199,248.742 211.670,247.272 211.825 C 245.333 212.030,244.290 212.368,243.469 213.054 C 242.649 213.741,241.826 214.006,240.469 214.023 C 239.441 214.036,237.898 214.171,237.040 214.323 C 236.182 214.475,270.262 214.600,312.772 214.600 C 388.821 214.600,390.073 214.612,390.632 215.376 C 391.651 216.770,391.325 217.736,389.547 218.588 C 387.689 219.479,386.660 220.770,387.034 221.745 C 388.331 225.124,382.298 228.858,379.835 226.200 C 378.738 225.016,375.975 224.509,374.252 225.174 L 373.103 225.617 374.652 226.725 C 375.503 227.334,376.962 228.057,377.893 228.331 C 380.787 229.181,380.937 230.753,378.444 234.100 C 377.666 235.145,376.901 236.000,376.745 236.000 C 376.589 236.000,375.934 236.444,375.290 236.986 C 374.646 237.528,373.237 238.200,372.159 238.479 C 371.082 238.758,370.060 239.207,369.889 239.477 C 369.132 240.672,361.077 241.342,358.634 240.413 C 356.991 239.788,355.805 236.867,356.586 235.369 C 356.921 234.726,357.196 233.994,357.198 233.743 C 357.205 232.295,362.864 232.396,364.228 233.868 C 365.204 234.921,369.250 235.344,370.058 234.477 C 370.853 233.625,369.577 232.499,367.309 232.053 C 364.413 231.484,364.000 231.096,364.000 228.953 C 364.000 226.865,364.312 226.000,365.066 226.000 C 365.386 226.000,365.536 225.820,365.400 225.600 C 365.090 225.098,354.134 225.059,353.826 225.558 C 353.485 226.110,354.640 226.400,357.184 226.400 C 359.961 226.400,360.611 226.950,360.230 228.978 C 359.752 231.526,358.607 232.000,352.925 232.000 C 348.107 232.000,347.916 232.033,346.579 233.100 C 344.605 234.675,344.778 234.800,348.938 234.800 C 354.178 234.800,355.331 236.077,352.653 238.916 C 349.880 241.857,333.200 241.578,333.200 238.591 C 333.200 237.652,332.342 237.899,330.966 239.233 C 328.969 241.169,324.974 240.979,324.029 238.903 L 323.536 237.822 322.874 238.914 C 322.083 240.218,321.377 240.481,318.733 240.461 C 315.748 240.438,314.627 239.011,316.400 237.493 C 316.840 237.116,317.200 236.538,317.200 236.207 C 317.200 235.877,317.560 235.382,318.000 235.107 C 319.493 234.175,318.747 233.200,316.541 233.200 C 315.043 233.200,314.283 233.740,310.882 237.214 L 307.764 240.400 305.511 240.400 C 302.400 240.400,301.204 239.236,302.700 237.665 C 303.085 237.261,303.595 236.586,303.833 236.165 C 304.071 235.744,304.644 235.227,305.107 235.016 C 305.569 234.805,306.138 234.215,306.370 233.705 C 306.603 233.195,307.065 232.673,307.397 232.546 C 307.728 232.419,308.000 232.120,308.000 231.882 C 308.000 231.432,311.596 228.005,312.071 228.002 C 312.463 227.999,313.556 225.690,313.291 225.424 C 312.471 224.604,308.244 225.254,306.939 226.400 C 306.187 227.060,305.398 227.600,305.186 227.600 C 304.974 227.600,304.800 227.872,304.800 228.205 C 304.800 228.950,301.988 231.998,301.300 231.999 C 301.025 232.000,300.800 232.206,300.800 232.458 C 300.800 232.837,297.478 236.243,293.786 239.649 C 292.326 240.996,287.993 240.414,288.001 238.871 C 288.007 237.897,293.066 232.055,298.479 226.771 C 299.600 225.677,299.391 224.800,298.009 224.800 C 297.662 224.800,296.979 224.521,296.492 224.180 L 295.606 223.559 296.457 222.408 C 297.601 220.862,297.211 219.910,295.503 220.074 C 294.218 220.198,294.197 220.234,293.990 222.600 C 293.875 223.920,293.565 225.384,293.301 225.853 C 292.333 227.576,287.758 227.512,286.610 225.759 C 285.903 224.681,284.726 224.545,282.200 225.252 C 280.852 225.630,280.726 225.748,281.400 226.003 C 281.840 226.169,282.543 226.687,282.962 227.153 C 283.381 227.619,284.048 228.000,284.443 228.000 C 287.971 228.000,288.667 231.795,285.699 234.854 C 284.875 235.704,283.969 236.399,283.687 236.400 C 283.406 236.400,283.071 236.671,282.944 237.001 C 282.817 237.332,281.699 237.898,280.459 238.258 C 279.220 238.619,278.019 239.168,277.792 239.479 C 276.896 240.704,269.548 241.281,266.305 240.380 C 264.614 239.911,264.217 239.348,263.800 236.833 C 263.571 235.450,263.426 235.211,263.134 235.733 C 262.928 236.100,262.480 236.400,262.138 236.400 C 261.796 236.400,261.007 236.828,260.386 237.350 C 259.765 237.873,258.578 238.428,257.748 238.583 C 256.919 238.739,256.046 239.131,255.809 239.455 C 254.981 240.588,246.849 241.334,244.733 240.472 C 242.751 239.664,241.229 235.727,242.745 235.330 C 243.242 235.200,243.600 234.787,243.600 234.343 C 243.600 233.421,241.964 234.092,240.637 235.559 C 240.218 236.022,239.572 236.400,239.200 236.400 C 238.828 236.400,238.206 236.751,237.817 237.181 C 237.429 237.610,236.107 238.170,234.879 238.425 C 233.652 238.680,232.127 239.273,231.491 239.744 C 230.429 240.529,229.836 240.600,224.334 240.600 C 217.710 240.600,217.200 240.409,217.200 237.924 C 217.200 236.531,216.677 236.474,216.073 237.800 C 215.822 238.350,215.383 238.800,215.097 238.800 C 214.812 238.800,214.270 239.160,213.893 239.600 C 213.048 240.587,209.439 240.723,208.145 239.817 C 207.334 239.249,207.327 239.146,207.877 235.960 C 208.645 231.516,208.408 231.123,206.303 233.344 C 204.492 235.255,202.055 237.748,200.385 239.397 C 198.161 241.594,194.482 240.516,194.923 237.797 C 195.193 236.133,194.241 235.786,193.836 237.400 C 193.698 237.950,193.417 238.400,193.213 238.400 C 193.009 238.400,192.356 238.850,191.762 239.400 C 190.447 240.619,187.128 240.821,185.948 239.753 C 185.164 239.043,186.162 236.232,187.469 235.471 C 187.780 235.289,188.611 234.494,189.317 233.702 C 190.023 232.911,192.058 230.783,193.841 228.974 C 195.624 227.164,197.194 225.393,197.331 225.036 C 197.468 224.680,198.034 224.215,198.590 224.004 C 199.145 223.793,199.600 223.397,199.600 223.125 C 199.600 222.853,200.095 222.232,200.700 221.745 C 202.065 220.647,201.654 220.127,199.200 219.848 C 197.384 219.641,195.600 220.332,195.600 221.242 C 195.600 222.854,192.716 225.132,190.282 225.443 C 188.917 225.618,188.205 225.827,188.701 225.908 C 190.976 226.281,190.560 228.549,187.846 230.575 L 186.741 231.400 94.871 231.397 C 43.958 231.395,2.331 231.238,1.500 231.045 L 0.000 230.695 0.000 315.348 L 0.000 400.000 200.000 400.000 L 400.000 400.000 400.000 314.600 C 400.000 242.705,399.914 229.200,399.454 229.200 C 399.154 229.200,398.479 229.535,397.954 229.945 C 395.690 231.713,392.958 231.495,390.701 229.366 C 385.334 224.303,390.761 215.595,397.189 218.956 C 398.287 219.530,399.369 220.000,399.593 220.000 C 399.868 220.000,400.000 184.392,400.000 110.000 L 400.000 0.000 200.000 0.000 L 0.000 0.000 0.000 113.643 M121.200 160.664 C 122.190 161.139,123.720 161.656,124.600 161.813 C 125.480 161.970,126.560 162.410,127.000 162.790 C 127.440 163.170,128.096 163.585,128.458 163.712 C 130.750 164.516,130.491 170.530,128.056 173.078 C 127.423 173.740,126.747 174.534,126.553 174.841 C 126.117 175.532,123.349 177.689,122.000 178.389 C 121.450 178.675,120.680 179.242,120.289 179.649 C 119.898 180.057,119.088 180.512,118.489 180.661 C 117.890 180.810,116.950 181.253,116.400 181.645 C 115.850 182.037,114.240 182.562,112.823 182.811 C 111.406 183.060,109.806 183.609,109.269 184.032 C 108.732 184.454,108.055 184.800,107.766 184.800 C 107.476 184.800,106.316 184.998,105.188 185.240 L 103.136 185.680 103.928 186.540 C 104.364 187.013,104.783 187.760,104.860 188.200 C 104.946 188.692,105.727 189.347,106.887 189.902 C 109.318 191.063,109.915 192.085,108.809 193.191 C 107.683 194.317,83.805 194.450,80.913 193.346 C 79.146 192.671,78.543 191.270,79.700 190.525 C 80.532 189.990,76.689 189.672,69.000 189.641 C 60.706 189.606,59.828 189.731,60.432 190.859 C 61.007 191.934,60.516 193.176,59.340 193.623 C 57.492 194.325,35.758 194.101,35.029 193.371 C 33.844 192.187,34.898 190.762,37.543 189.970 C 38.934 189.553,39.185 189.289,39.561 187.847 C 40.134 185.651,40.949 184.711,53.948 171.252 C 55.570 169.574,57.166 167.795,57.494 167.300 C 57.823 166.805,58.312 166.400,58.582 166.400 C 58.851 166.400,59.278 165.947,59.530 165.394 C 59.782 164.841,60.396 164.197,60.894 163.963 C 61.392 163.729,62.509 162.646,63.376 161.556 L 64.952 159.574 92.176 159.687 C 119.131 159.799,119.418 159.809,121.200 160.664 M204.400 160.666 C 205.170 161.143,206.520 161.662,207.400 161.819 C 212.316 162.699,215.540 168.060,212.800 170.800 C 212.360 171.240,212.000 171.755,212.000 171.944 C 212.000 172.223,210.553 173.977,208.894 175.707 C 208.269 176.360,205.476 178.400,205.207 178.400 C 205.052 178.400,204.401 178.855,203.762 179.410 C 203.123 179.966,202.150 180.536,201.600 180.676 C 201.050 180.817,200.150 181.256,199.600 181.651 C 199.050 182.047,197.451 182.552,196.047 182.772 C 194.642 182.992,193.202 183.435,192.847 183.756 C 192.266 184.280,191.207 184.602,187.446 185.398 L 186.291 185.643 187.287 186.721 C 187.835 187.315,188.390 188.107,188.522 188.482 C 188.653 188.857,189.468 189.524,190.331 189.965 C 192.420 191.031,192.923 192.220,191.771 193.371 C 190.687 194.456,166.208 194.297,163.778 193.190 C 161.815 192.296,161.738 192.152,162.583 190.945 C 163.315 189.900,160.981 189.605,152.000 189.607 C 144.628 189.609,143.083 189.833,143.613 190.824 C 144.246 192.007,144.065 192.589,142.838 193.314 C 141.463 194.126,119.832 194.367,118.374 193.586 C 116.807 192.747,117.405 191.348,119.800 190.251 C 121.382 189.527,122.000 189.023,122.000 188.456 C 122.000 188.023,122.405 187.181,122.900 186.585 C 123.879 185.407,126.041 182.987,126.767 182.257 C 127.017 182.006,127.892 181.092,128.711 180.226 C 129.530 179.360,131.685 177.121,133.500 175.251 C 135.315 173.380,136.800 171.775,136.800 171.684 C 136.800 171.500,141.051 167.014,145.498 162.507 L 148.396 159.569 175.698 159.684 C 202.901 159.800,203.005 159.803,204.400 160.666 M286.818 160.440 C 287.358 160.792,288.790 161.306,290.000 161.582 C 291.210 161.859,292.470 162.250,292.800 162.452 C 296.271 164.574,296.385 164.761,296.395 168.318 C 296.399 170.048,296.217 170.620,295.402 171.435 C 294.853 171.984,294.123 172.976,293.779 173.641 C 293.435 174.305,292.355 175.412,291.377 176.101 C 290.400 176.790,289.600 177.478,289.600 177.628 C 289.600 177.779,289.073 178.121,288.429 178.388 C 287.785 178.655,287.169 179.105,287.060 179.388 C 286.951 179.672,286.035 180.185,285.025 180.530 C 284.014 180.874,282.927 181.416,282.609 181.734 C 282.291 182.052,280.824 182.523,279.349 182.780 C 277.874 183.036,276.249 183.575,275.738 183.977 C 275.227 184.379,273.952 184.829,272.905 184.977 C 269.534 185.453,269.401 185.533,270.320 186.538 C 270.753 187.012,271.236 187.822,271.393 188.338 C 271.583 188.964,272.321 189.544,273.602 190.077 C 275.879 191.022,276.455 192.219,275.154 193.300 C 274.391 193.934,273.129 194.000,261.815 194.000 C 247.090 194.000,244.756 193.570,245.896 191.069 C 246.449 189.854,244.362 189.593,234.400 189.631 C 227.986 189.656,225.714 189.929,226.727 190.555 C 227.418 190.982,227.305 192.615,226.539 193.251 C 225.332 194.254,202.421 194.269,201.184 193.267 C 199.982 192.294,200.487 191.531,203.177 190.253 C 204.652 189.553,205.177 188.994,206.044 187.198 C 206.676 185.889,208.379 183.691,210.253 181.765 C 211.984 179.985,214.513 177.330,215.873 175.865 C 217.233 174.399,218.538 173.200,218.773 173.200 C 219.008 173.200,219.200 172.998,219.200 172.751 C 219.200 172.504,220.280 171.252,221.600 169.968 C 222.920 168.685,224.000 167.443,224.000 167.209 C 224.000 166.974,224.450 166.578,225.000 166.327 C 225.550 166.077,226.000 165.712,226.000 165.516 C 226.000 165.321,227.288 163.904,228.861 162.367 L 231.722 159.574 258.779 159.687 C 282.782 159.787,285.947 159.872,286.818 160.440 M76.968 175.086 C 73.375 178.821,73.257 179.001,73.915 179.738 C 75.279 181.264,93.267 180.074,94.916 178.349 C 95.309 177.937,95.789 177.600,95.982 177.600 C 96.651 177.600,99.548 174.594,99.982 173.451 C 100.770 171.373,100.106 171.227,89.852 171.213 L 80.705 171.200 76.968 175.086 M160.199 175.074 C 155.964 179.392,155.761 179.844,157.876 180.241 C 159.701 180.583,171.400 180.163,174.421 179.647 C 177.877 179.057,183.451 175.068,183.673 173.027 C 183.852 171.378,183.297 171.286,172.899 171.240 L 163.998 171.200 160.199 175.074 M246.600 171.743 C 245.681 172.277,243.200 174.737,243.200 175.114 C 243.200 175.253,242.300 176.225,241.200 177.274 L 239.200 179.182 240.223 179.852 C 242.539 181.369,259.590 179.959,261.603 178.083 C 262.125 177.597,262.711 177.200,262.907 177.200 C 264.984 177.200,267.153 172.267,265.374 171.590 C 263.891 171.026,247.606 171.159,246.600 171.743 M218.657 220.482 C 218.522 220.987,218.408 221.850,218.403 222.400 C 218.399 222.950,217.952 224.120,217.410 225.000 C 215.455 228.174,216.177 229.729,218.400 227.131 C 219.170 226.230,220.790 224.535,222.000 223.364 C 224.755 220.696,224.555 219.866,221.110 219.682 C 219.098 219.574,218.881 219.644,218.657 220.482 M250.627 219.959 C 249.947 220.225,249.841 220.730,249.752 224.131 C 249.640 228.421,249.734 228.681,250.607 226.500 C 250.937 225.675,251.701 224.658,252.304 224.241 C 254.637 222.626,255.857 220.778,255.004 220.153 C 254.196 219.562,251.900 219.461,250.627 219.959 M264.119 219.880 C 263.634 219.974,263.119 220.444,262.973 220.925 C 262.827 221.406,262.234 222.272,261.654 222.848 C 261.074 223.425,260.150 224.542,259.600 225.331 C 259.050 226.120,258.115 226.971,257.523 227.222 C 256.916 227.479,256.392 228.054,256.323 228.539 C 256.255 229.013,255.795 229.578,255.300 229.795 C 254.805 230.012,254.400 230.310,254.400 230.457 C 254.400 230.604,253.770 231.478,253.000 232.400 C 251.225 234.525,251.244 234.800,253.169 234.800 C 255.499 234.800,257.191 233.392,265.907 224.200 C 268.887 221.057,268.928 220.985,268.185 220.242 C 267.577 219.634,266.077 219.500,264.119 219.880 M337.700 219.916 C 336.474 220.043,335.680 222.746,336.598 223.664 C 337.018 224.084,339.200 223.484,339.200 222.949 C 339.200 222.641,339.421 222.034,339.692 221.601 C 340.366 220.522,339.437 219.735,337.700 219.916 M209.467 220.267 C 208.979 220.754,209.191 221.600,209.800 221.600 C 210.133 221.600,210.400 221.244,210.400 220.800 C 210.400 220.003,209.974 219.760,209.467 220.267 M231.752 220.581 C 231.476 221.299,231.923 222.095,232.428 221.783 C 232.935 221.470,232.901 220.000,232.387 220.000 C 232.161 220.000,231.875 220.261,231.752 220.581 M276.400 221.129 L 276.400 222.306 277.900 221.790 C 278.725 221.506,279.400 221.033,279.400 220.737 C 279.400 220.405,278.827 220.153,277.900 220.076 C 276.478 219.958,276.400 220.013,276.400 221.129 M347.646 221.700 C 347.672 222.635,347.772 223.103,347.868 222.740 C 347.965 222.376,348.562 221.864,349.195 221.602 C 350.640 221.004,350.366 220.000,348.757 220.000 C 347.655 220.000,347.602 220.081,347.646 221.700 M369.230 220.564 C 368.578 221.349,369.309 221.728,370.829 221.394 C 371.813 221.177,371.951 221.023,371.570 220.564 C 370.970 219.841,369.830 219.841,369.230 220.564 M207.473 222.954 C 207.342 223.295,207.395 223.673,207.590 223.794 C 208.100 224.109,208.404 223.454,208.029 222.847 C 207.781 222.446,207.659 222.469,207.473 222.954 M345.606 223.900 C 345.610 224.332,345.725 224.431,345.906 224.160 C 346.068 223.918,346.470 223.617,346.800 223.492 C 347.201 223.339,347.101 223.253,346.500 223.232 C 345.895 223.210,345.602 223.430,345.606 223.900 M205.200 225.400 C 204.792 225.891,204.820 226.000,205.351 226.000 C 205.708 226.000,206.000 225.730,206.000 225.400 C 206.000 225.070,205.932 224.800,205.849 224.800 C 205.766 224.800,205.474 225.070,205.200 225.400 M227.494 225.439 C 227.363 225.571,227.358 225.946,227.483 226.273 C 227.669 226.757,227.774 226.768,228.050 226.334 C 228.639 225.403,228.214 224.719,227.494 225.439 M236.073 226.100 C 235.594 226.595,234.929 227.270,234.596 227.600 C 232.618 229.560,229.600 232.973,229.600 233.249 C 229.600 233.428,229.105 233.843,228.500 234.171 C 227.400 234.768,227.400 234.768,229.400 234.778 C 230.500 234.784,231.850 234.530,232.400 234.214 C 232.950 233.898,234.064 233.346,234.876 232.986 C 235.688 232.626,236.637 231.897,236.985 231.366 C 237.334 230.835,237.806 230.400,238.036 230.400 C 239.076 230.400,242.304 226.037,241.707 225.440 C 241.013 224.746,236.919 225.226,236.073 226.100 M320.973 226.600 L 319.573 228.000 322.029 228.000 C 324.065 228.000,324.688 227.829,325.673 227.000 C 326.327 226.450,327.118 226.000,327.431 226.000 C 327.744 226.000,328.000 225.820,328.000 225.600 C 328.000 224.386,322.388 225.185,320.973 226.600 M271.876 226.430 C 271.757 226.886,271.286 227.357,270.830 227.476 C 270.373 227.596,269.997 227.897,269.993 228.147 C 269.989 228.396,269.196 229.442,268.231 230.472 C 266.304 232.525,266.420 232.800,269.204 232.800 C 270.368 232.800,270.933 233.043,271.529 233.800 C 272.227 234.688,272.614 234.800,274.984 234.800 L 277.653 234.800 277.527 233.707 C 277.399 232.607,276.950 232.342,274.306 231.809 C 273.067 231.558,272.676 230.555,272.629 227.500 C 272.599 225.514,272.247 225.013,271.876 226.430 M343.200 226.371 C 343.200 226.576,342.917 227.026,342.571 227.371 C 342.000 227.943,342.018 228.000,342.771 228.000 C 343.389 228.000,343.600 227.745,343.600 227.000 C 343.600 226.450,343.510 226.000,343.400 226.000 C 343.290 226.000,343.200 226.167,343.200 226.371 M393.896 227.156 C 393.585 228.342,394.193 229.070,394.961 228.432 C 395.427 228.045,395.482 227.726,395.178 227.158 C 394.660 226.192,394.148 226.191,393.896 227.156 M203.094 227.439 C 202.963 227.571,202.958 227.946,203.083 228.273 C 203.269 228.757,203.374 228.768,203.650 228.334 C 204.239 227.403,203.814 226.719,203.094 227.439 M225.439 227.537 C 225.054 228.160,225.785 228.728,226.282 228.192 C 226.661 227.784,226.642 227.625,226.195 227.453 C 225.882 227.333,225.542 227.371,225.439 227.537 M329.600 230.600 C 329.600 230.930,329.343 231.200,329.029 231.200 C 328.088 231.200,327.200 232.379,327.200 233.629 C 327.200 234.273,327.380 234.800,327.600 234.800 C 327.820 234.800,328.000 234.626,328.000 234.414 C 328.000 234.201,328.540 233.475,329.200 232.800 C 329.860 232.125,330.400 231.324,330.400 231.020 C 330.400 230.715,330.625 230.376,330.900 230.265 C 331.175 230.154,330.995 230.049,330.500 230.032 C 329.953 230.012,329.600 230.235,329.600 230.600 M338.495 231.596 C 337.859 232.614,337.872 232.800,338.576 232.800 C 339.333 232.800,339.559 232.362,339.245 231.501 C 339.010 230.857,338.952 230.865,338.495 231.596 M334.038 236.555 C 333.710 236.949,333.693 237.211,333.983 237.390 C 334.216 237.533,334.517 237.362,334.652 237.008 C 334.990 236.128,334.619 235.854,334.038 236.555 " stroke="none" fill="#fbfbfb" fill-rule="evenodd"></path><path id="path2" d="M13.778 216.435 C 13.083 217.559,18.721 217.615,149.425 217.776 C 262.740 217.916,284.850 218.032,286.145 218.493 L 287.689 219.042 285.220 219.501 C 282.637 219.982,278.925 222.400,280.770 222.400 C 281.210 222.400,281.891 222.056,282.284 221.635 C 283.953 219.851,292.326 220.152,292.846 222.015 L 293.120 223.000 293.160 221.976 C 293.218 220.481,292.431 219.709,290.400 219.273 C 289.231 219.021,288.957 218.871,289.620 218.843 C 290.181 218.819,290.831 218.609,291.065 218.375 C 291.708 217.732,375.888 217.769,377.839 218.413 C 380.560 219.311,390.850 217.438,389.143 216.356 C 388.299 215.822,14.109 215.900,13.778 216.435 M376.200 219.645 C 375.320 219.845,374.266 220.411,373.857 220.902 C 373.448 221.393,372.638 222.024,372.057 222.304 C 371.476 222.583,371.330 222.719,371.733 222.606 C 372.136 222.493,372.708 222.400,373.004 222.400 C 373.300 222.400,373.851 222.092,374.228 221.715 C 374.940 221.002,377.841 220.492,381.513 220.434 C 383.519 220.402,383.669 220.472,384.453 221.800 C 385.446 223.483,385.783 223.589,385.414 222.100 C 384.726 219.327,381.440 218.452,376.200 219.645 M204.100 219.882 C 203.605 219.978,203.200 220.209,203.200 220.397 C 203.200 220.585,202.711 221.320,202.114 222.030 C 201.107 223.227,201.094 223.285,201.936 222.834 C 202.436 222.567,202.940 222.100,203.056 221.798 C 203.295 221.176,205.367 220.609,205.991 220.995 C 206.473 221.292,205.944 222.478,204.650 224.000 L 203.800 225.000 204.938 224.000 C 207.174 222.036,207.440 219.348,205.369 219.654 C 205.166 219.684,204.595 219.787,204.100 219.882 M213.166 219.928 C 212.817 220.078,211.917 220.916,211.166 221.792 L 209.800 223.383 211.579 222.092 C 214.163 220.215,216.677 220.219,216.911 222.100 C 217.054 223.257,217.079 223.218,217.136 221.743 C 217.214 219.712,215.499 218.928,213.166 219.928 M226.800 220.127 C 226.470 220.403,225.660 221.232,225.000 221.970 L 223.800 223.310 225.000 222.580 C 225.660 222.179,226.508 221.592,226.885 221.276 C 227.928 220.403,228.864 220.957,228.600 222.291 C 228.393 223.334,228.421 223.320,229.081 222.061 C 230.060 220.191,228.403 218.786,226.800 220.127 M235.800 220.061 C 235.360 220.306,234.285 221.337,233.411 222.353 C 232.210 223.750,232.112 223.950,233.011 223.173 C 235.657 220.887,235.985 220.800,241.963 220.800 C 247.288 220.800,247.584 220.842,248.177 221.689 C 248.616 222.315,248.800 222.397,248.800 221.965 C 248.800 220.092,247.950 219.805,242.133 219.707 C 238.639 219.649,236.305 219.779,235.800 220.061 M258.396 220.075 C 256.902 221.373,255.759 222.930,256.633 222.476 C 257.091 222.238,257.698 221.764,257.982 221.422 C 258.266 221.080,259.111 220.800,259.861 220.800 L 261.224 220.800 260.340 221.995 C 259.141 223.617,259.539 223.782,260.872 222.215 C 262.380 220.442,260.171 218.532,258.396 220.075 M271.528 220.100 C 271.185 220.375,270.205 221.404,269.352 222.387 L 267.800 224.174 269.868 222.451 C 272.270 220.450,273.473 220.363,273.271 222.206 L 273.141 223.383 273.971 222.328 C 275.058 220.946,275.017 220.463,273.774 219.990 C 272.457 219.489,272.280 219.498,271.528 220.100 M299.694 220.015 C 299.196 220.215,298.606 220.858,298.383 221.445 C 297.840 222.873,298.136 223.063,298.955 221.812 L 299.618 220.800 307.453 220.800 L 315.287 220.800 315.021 221.900 C 314.876 222.505,314.462 223.225,314.102 223.500 C 313.742 223.775,313.652 224.000,313.903 224.000 C 315.675 224.000,316.720 220.287,315.072 219.845 C 313.677 219.471,300.691 219.614,299.694 220.015 M320.416 220.475 C 319.967 220.957,319.600 221.485,319.600 221.648 C 319.600 221.812,319.226 222.065,318.770 222.210 C 318.313 222.354,318.028 222.561,318.136 222.669 C 318.414 222.947,320.138 221.987,320.520 221.342 C 320.767 220.924,322.242 220.800,326.987 220.800 C 333.843 220.800,334.301 220.888,334.842 222.310 C 335.399 223.775,335.683 223.159,335.153 221.636 C 334.524 219.834,333.587 219.600,326.990 219.600 C 321.581 219.600,321.182 219.653,320.416 220.475 M341.940 221.139 C 340.935 222.217,340.709 222.644,341.214 222.512 C 341.618 222.407,342.258 221.978,342.636 221.560 C 343.821 220.251,344.916 220.555,344.584 222.100 L 344.303 223.400 345.337 222.295 C 346.340 221.223,346.404 220.006,345.457 219.995 C 345.206 219.992,344.640 219.896,344.200 219.782 C 343.630 219.634,342.981 220.023,341.940 221.139 M351.450 220.888 C 350.896 221.596,350.538 222.271,350.656 222.388 C 350.773 222.505,351.197 222.195,351.599 221.700 C 352.304 220.830,352.559 220.800,359.141 220.800 C 366.470 220.800,366.842 220.908,365.519 222.653 L 364.650 223.800 365.725 222.830 C 368.530 220.301,367.103 219.600,359.149 219.600 L 352.458 219.600 351.450 220.888 M8.610 222.895 C 5.926 223.869,12.388 223.945,100.267 223.972 C 192.260 224.000,192.926 223.993,192.532 222.967 C 192.251 222.234,10.627 222.163,8.610 222.895 M4.500 227.482 C 3.441 227.686,3.364 228.107,4.229 228.971 C 5.073 229.816,184.778 229.947,186.681 229.105 C 188.366 228.359,188.921 227.732,188.157 227.439 C 187.455 227.170,5.900 227.213,4.500 227.482 " stroke="none" fill="#b24c59" fill-rule="evenodd"></path><path id="path3" d="M63.376 161.556 C 62.509 162.646,61.392 163.729,60.894 163.963 C 60.396 164.197,59.782 164.841,59.530 165.394 C 59.278 165.947,58.851 166.400,58.582 166.400 C 58.312 166.400,57.823 166.805,57.494 167.300 C 57.166 167.795,55.570 169.574,53.948 171.252 C 40.949 184.711,40.134 185.651,39.561 187.847 C 39.185 189.289,38.934 189.553,37.543 189.970 C 34.898 190.762,33.844 192.187,35.029 193.371 C 35.758 194.101,57.492 194.325,59.340 193.623 C 60.516 193.176,61.007 191.934,60.432 190.859 C 59.828 189.731,60.706 189.606,69.000 189.641 C 76.689 189.672,80.532 189.990,79.700 190.525 C 78.543 191.270,79.146 192.671,80.913 193.346 C 83.805 194.450,107.683 194.317,108.809 193.191 C 109.915 192.085,109.318 191.063,106.887 189.902 C 105.727 189.347,104.946 188.692,104.860 188.200 C 104.783 187.760,104.364 187.013,103.928 186.540 L 103.136 185.680 105.188 185.240 C 106.316 184.998,107.476 184.800,107.766 184.800 C 108.055 184.800,108.732 184.454,109.269 184.032 C 109.806 183.609,111.406 183.060,112.823 182.811 C 114.240 182.562,115.850 182.037,116.400 181.645 C 116.950 181.253,117.890 180.810,118.489 180.661 C 119.088 180.512,119.898 180.057,120.289 179.649 C 120.680 179.242,121.450 178.675,122.000 178.389 C 123.349 177.689,126.117 175.532,126.553 174.841 C 126.747 174.534,127.423 173.740,128.056 173.078 C 130.491 170.530,130.750 164.516,128.458 163.712 C 128.096 163.585,127.440 163.170,127.000 162.790 C 126.560 162.410,125.480 161.970,124.600 161.813 C 123.720 161.656,122.190 161.139,121.200 160.664 C 119.418 159.809,119.131 159.799,92.176 159.687 L 64.952 159.574 63.376 161.556 M145.498 162.507 C 141.051 167.014,136.800 171.500,136.800 171.684 C 136.800 171.775,135.315 173.380,133.500 175.251 C 131.685 177.121,129.530 179.360,128.711 180.226 C 127.892 181.092,127.017 182.006,126.767 182.257 C 126.041 182.987,123.879 185.407,122.900 186.585 C 122.405 187.181,122.000 188.023,122.000 188.456 C 122.000 189.023,121.382 189.527,119.800 190.251 C 117.405 191.348,116.807 192.747,118.374 193.586 C 119.832 194.367,141.463 194.126,142.838 193.314 C 144.065 192.589,144.246 192.007,143.613 190.824 C 143.083 189.833,144.628 189.609,152.000 189.607 C 160.981 189.605,163.315 189.900,162.583 190.945 C 161.738 192.152,161.815 192.296,163.778 193.190 C 166.208 194.297,190.687 194.456,191.771 193.371 C 192.923 192.220,192.420 191.031,190.331 189.965 C 189.468 189.524,188.653 188.857,188.522 188.482 C 188.390 188.107,187.835 187.315,187.287 186.721 L 186.291 185.643 187.446 185.398 C 191.207 184.602,192.266 184.280,192.847 183.756 C 193.202 183.435,194.642 182.992,196.047 182.772 C 197.451 182.552,199.050 182.047,199.600 181.651 C 200.150 181.256,201.050 180.817,201.600 180.676 C 202.150 180.536,203.123 179.966,203.762 179.410 C 204.401 178.855,205.052 178.400,205.207 178.400 C 205.476 178.400,208.269 176.360,208.894 175.707 C 210.553 173.977,212.000 172.223,212.000 171.944 C 212.000 171.755,212.360 171.240,212.800 170.800 C 215.540 168.060,212.316 162.699,207.400 161.819 C 206.520 161.662,205.170 161.143,204.400 160.666 C 203.005 159.803,202.901 159.800,175.698 159.684 L 148.396 159.569 145.498 162.507 M228.861 162.367 C 227.288 163.904,226.000 165.321,226.000 165.516 C 226.000 165.712,225.550 166.077,225.000 166.327 C 224.450 166.578,224.000 166.974,224.000 167.209 C 224.000 167.443,222.920 168.685,221.600 169.968 C 220.280 171.252,219.200 172.504,219.200 172.751 C 219.200 172.998,219.008 173.200,218.773 173.200 C 218.538 173.200,217.233 174.399,215.873 175.865 C 214.513 177.330,211.984 179.985,210.253 181.765 C 208.379 183.691,206.676 185.889,206.044 187.198 C 205.177 188.994,204.652 189.553,203.177 190.253 C 200.487 191.531,199.982 192.294,201.184 193.267 C 202.421 194.269,225.332 194.254,226.539 193.251 C 227.305 192.615,227.418 190.982,226.727 190.555 C 225.714 189.929,227.986 189.656,234.400 189.631 C 244.362 189.593,246.449 189.854,245.896 191.069 C 244.756 193.570,247.090 194.000,261.815 194.000 C 273.129 194.000,274.391 193.934,275.154 193.300 C 276.455 192.219,275.879 191.022,273.602 190.077 C 272.321 189.544,271.583 188.964,271.393 188.338 C 271.236 187.822,270.753 187.012,270.320 186.538 C 269.401 185.533,269.534 185.453,272.905 184.977 C 273.952 184.829,275.227 184.379,275.738 183.977 C 276.249 183.575,277.874 183.036,279.349 182.780 C 280.824 182.523,282.291 182.052,282.609 181.734 C 282.927 181.416,284.014 180.874,285.025 180.530 C 286.035 180.185,286.951 179.672,287.060 179.388 C 287.169 179.105,287.785 178.655,288.429 178.388 C 289.073 178.121,289.600 177.779,289.600 177.628 C 289.600 177.478,290.400 176.790,291.377 176.101 C 292.355 175.412,293.435 174.305,293.779 173.641 C 294.123 172.976,294.853 171.984,295.402 171.435 C 296.217 170.620,296.399 170.048,296.395 168.318 C 296.385 164.761,296.271 164.574,292.800 162.452 C 292.470 162.250,291.210 161.859,290.000 161.582 C 288.790 161.306,287.358 160.792,286.818 160.440 C 285.947 159.872,282.782 159.787,258.779 159.687 L 231.722 159.574 228.861 162.367 M116.575 161.329 C 117.442 161.710,119.662 162.286,121.508 162.608 C 123.525 162.959,125.273 163.514,125.886 163.997 C 126.448 164.438,127.136 164.800,127.415 164.800 C 128.014 164.800,128.800 166.857,128.800 168.423 C 128.800 170.256,123.622 175.909,120.400 177.594 C 119.850 177.881,119.266 178.342,119.103 178.618 C 118.939 178.893,117.859 179.339,116.703 179.608 C 115.546 179.877,114.060 180.412,113.400 180.795 C 112.740 181.179,111.300 181.710,110.200 181.976 C 109.100 182.242,107.904 182.727,107.542 183.054 C 107.180 183.381,105.650 183.822,104.142 184.033 C 100.230 184.582,99.943 184.699,98.516 186.331 L 97.233 187.800 70.016 187.913 C 42.898 188.026,42.800 188.024,42.740 187.213 C 42.707 186.766,42.662 186.219,42.640 185.997 C 42.604 185.633,47.852 179.987,57.300 170.226 C 59.225 168.238,60.800 166.383,60.800 166.105 C 60.800 165.827,60.987 165.600,61.215 165.600 C 61.767 165.600,64.579 162.831,65.149 161.727 C 65.800 160.465,65.602 160.474,91.400 160.558 C 112.815 160.628,115.146 160.699,116.575 161.329 M200.600 161.506 C 201.920 161.982,204.124 162.547,205.497 162.763 C 210.408 163.533,212.600 166.345,211.128 169.985 C 210.391 171.808,208.017 174.800,207.308 174.800 C 207.208 174.800,206.391 175.430,205.492 176.200 C 204.592 176.970,203.689 177.600,203.486 177.600 C 203.282 177.600,202.607 178.028,201.986 178.550 C 201.365 179.073,200.169 179.628,199.329 179.784 C 198.488 179.940,197.254 180.403,196.587 180.812 C 195.920 181.222,194.483 181.757,193.394 182.001 C 192.304 182.246,191.112 182.717,190.745 183.050 C 190.377 183.383,188.779 183.835,187.193 184.055 C 183.480 184.569,182.754 184.865,181.251 186.473 L 180.011 187.800 152.805 187.911 L 125.600 188.022 125.600 187.047 C 125.600 185.954,127.508 182.801,128.171 182.798 C 128.407 182.796,129.770 181.501,131.200 179.919 C 132.630 178.337,134.106 176.763,134.480 176.422 C 134.854 176.080,135.394 175.566,135.680 175.280 C 135.966 174.995,136.605 174.377,137.100 173.908 C 137.595 173.439,138.000 172.858,138.000 172.616 C 138.000 172.374,138.377 171.912,138.839 171.588 C 139.732 170.962,140.282 170.416,146.212 164.263 L 150.007 160.327 174.104 160.484 C 197.584 160.638,198.261 160.664,200.600 161.506 M283.621 161.514 C 284.843 161.975,286.823 162.474,288.021 162.625 C 293.679 163.333,297.167 167.815,294.200 170.565 C 293.650 171.075,293.200 171.671,293.200 171.891 C 293.200 172.325,288.353 176.784,287.268 177.347 C 286.901 177.538,285.970 178.106,285.200 178.610 C 284.430 179.113,283.185 179.652,282.434 179.809 C 281.683 179.965,280.261 180.522,279.275 181.046 C 278.288 181.571,277.046 182.000,276.514 182.000 C 275.493 182.000,273.965 182.667,273.557 183.292 C 273.423 183.496,271.910 183.838,270.195 184.051 C 266.562 184.502,265.780 184.833,264.329 186.540 L 263.258 187.800 235.529 187.900 C 220.278 187.955,208.011 187.863,208.268 187.696 C 208.526 187.529,208.867 186.873,209.026 186.239 C 209.185 185.604,210.235 184.146,211.358 182.998 C 212.481 181.850,215.079 179.131,217.132 176.955 C 227.392 166.080,227.953 165.492,230.223 163.228 C 231.200 162.254,232.000 161.320,232.000 161.154 C 232.000 159.999,280.500 160.338,283.621 161.514 M81.898 169.074 C 80.376 169.251,80.030 169.562,72.106 177.860 C 70.581 179.456,70.098 180.954,70.826 181.831 C 71.470 182.607,89.868 182.531,90.839 181.748 C 91.148 181.500,92.444 180.997,93.719 180.632 C 94.994 180.266,96.139 179.704,96.262 179.383 C 96.385 179.062,96.747 178.800,97.067 178.800 C 97.387 178.800,98.718 177.738,100.025 176.439 C 103.146 173.337,103.232 172.235,100.500 170.336 L 98.600 169.016 91.000 168.958 C 86.820 168.925,82.724 168.978,81.898 169.074 M164.544 169.057 C 164.074 169.160,162.974 169.999,162.101 170.922 C 161.228 171.845,159.813 173.255,158.956 174.056 C 154.783 177.959,152.808 180.845,153.630 181.836 C 154.276 182.614,173.081 182.526,174.039 181.741 C 174.348 181.488,175.544 181.003,176.697 180.663 C 183.557 178.640,187.292 172.370,183.071 169.961 C 181.446 169.034,167.711 168.363,164.544 169.057 M247.034 169.562 C 246.627 170.012,245.956 170.487,245.543 170.618 C 245.129 170.749,244.519 171.384,244.185 172.028 C 243.852 172.673,243.386 173.200,243.150 173.200 C 242.661 173.200,240.849 175.055,239.852 176.577 C 239.483 177.140,238.909 177.600,238.577 177.600 C 237.471 177.600,236.197 181.261,237.076 181.910 C 238.105 182.669,256.376 182.452,257.317 181.670 C 257.668 181.378,258.851 180.903,259.945 180.614 C 262.554 179.926,267.600 175.985,267.600 174.635 C 267.600 174.340,267.870 173.874,268.200 173.600 C 269.255 172.725,268.851 171.836,266.746 170.400 L 264.693 169.000 256.233 168.872 C 248.137 168.750,247.742 168.780,247.034 169.562 M99.709 171.763 C 100.891 172.660,97.736 177.600,95.982 177.600 C 95.789 177.600,95.309 177.937,94.916 178.349 C 93.267 180.074,75.279 181.264,73.915 179.738 C 73.257 179.001,73.375 178.821,76.968 175.086 L 80.705 171.200 89.852 171.213 C 96.880 171.222,99.164 171.350,99.709 171.763 M182.800 171.566 C 184.144 171.952,183.970 173.839,182.473 175.111 C 177.454 179.372,175.778 179.890,165.776 180.272 C 154.967 180.685,154.826 180.553,160.199 175.074 L 163.998 171.200 172.899 171.240 C 177.794 171.262,182.250 171.409,182.800 171.566 M265.374 171.590 C 267.153 172.267,264.984 177.200,262.907 177.200 C 262.711 177.200,262.125 177.597,261.603 178.083 C 259.590 179.959,242.539 181.369,240.223 179.852 L 239.200 179.182 241.200 177.274 C 242.300 176.225,243.200 175.253,243.200 175.114 C 243.200 174.737,245.681 172.277,246.600 171.743 C 247.606 171.159,263.891 171.026,265.374 171.590 M57.369 191.658 C 57.922 191.911,58.280 192.271,58.164 192.458 C 57.800 193.047,36.304 192.890,36.500 192.300 C 36.860 191.217,55.165 190.655,57.369 191.658 M106.754 191.757 C 108.412 192.676,107.181 192.787,95.040 192.812 C 82.907 192.837,82.003 192.760,82.830 191.764 C 83.493 190.965,105.313 190.959,106.754 191.757 M140.167 191.547 C 140.809 191.686,141.409 192.025,141.500 192.300 C 141.683 192.850,120.400 193.067,119.854 192.521 C 118.731 191.397,135.715 190.584,140.167 191.547 M190.335 191.745 C 191.753 192.660,189.508 192.859,178.192 192.818 C 166.009 192.775,164.538 192.636,166.615 191.730 C 167.984 191.131,189.406 191.146,190.335 191.745 M223.823 191.767 C 225.343 192.878,224.508 192.922,204.067 192.807 C 202.523 192.799,202.499 191.979,204.030 191.551 C 206.082 190.977,222.996 191.162,223.823 191.767 M273.154 191.757 C 274.908 192.730,273.324 192.879,261.383 192.869 C 249.364 192.858,248.189 192.750,249.476 191.774 C 250.509 190.991,271.744 190.976,273.154 191.757 M32.502 195.190 C 30.780 195.599,30.132 196.188,29.587 197.839 C 29.301 198.706,28.679 199.449,27.904 199.850 C 27.228 200.199,26.421 200.691,26.110 200.943 C 24.772 202.025,22.000 204.776,22.000 205.021 C 22.000 205.168,20.965 206.331,19.700 207.606 C 16.379 210.953,15.600 212.002,15.600 213.125 C 15.600 214.067,15.641 214.087,16.331 213.462 C 16.734 213.098,17.364 212.800,17.731 212.800 C 18.099 212.800,18.371 212.665,18.336 212.500 C 18.228 211.987,18.883 210.636,19.646 209.800 C 20.047 209.360,21.024 208.280,21.815 207.400 C 26.648 202.028,25.594 202.357,38.053 202.333 C 48.446 202.312,48.456 202.313,49.459 203.256 C 51.108 204.807,63.074 204.872,70.707 203.372 C 77.572 202.022,96.654 201.682,97.859 202.888 C 98.433 203.461,98.404 203.544,97.545 203.813 C 97.025 203.975,96.039 204.597,95.354 205.194 C 94.647 205.811,93.381 206.397,92.426 206.549 C 91.501 206.697,90.351 207.064,89.872 207.364 C 89.392 207.664,88.010 208.130,86.800 208.399 C 85.590 208.669,84.023 209.218,83.318 209.620 C 82.554 210.056,80.460 210.528,78.140 210.786 C 75.998 211.025,73.425 211.530,72.423 211.907 C 70.792 212.521,67.897 212.615,45.000 212.797 C 30.920 212.909,19.883 213.135,20.472 213.301 C 21.062 213.466,30.587 213.606,41.639 213.612 C 53.423 213.618,62.906 213.794,64.567 214.038 C 69.146 214.711,76.307 214.139,77.359 213.016 C 77.981 212.351,78.866 212.043,80.756 211.833 C 82.162 211.676,84.412 211.129,85.756 210.617 C 87.100 210.105,89.079 209.481,90.153 209.230 C 91.227 208.980,92.556 208.420,93.107 207.987 C 93.657 207.554,94.437 207.200,94.838 207.200 C 95.240 207.200,95.898 206.847,96.300 206.415 C 96.703 205.983,97.668 205.364,98.444 205.039 C 99.737 204.499,102.400 201.891,102.400 201.165 C 102.400 200.996,103.359 200.310,104.531 199.639 C 107.220 198.101,107.948 196.755,106.714 195.605 C 105.512 194.486,84.041 194.352,81.880 195.451 C 80.211 196.300,80.312 196.166,80.032 197.896 C 79.792 199.384,79.761 199.406,77.226 199.908 C 75.816 200.188,74.468 200.572,74.231 200.761 C 72.033 202.521,51.200 202.964,51.200 201.251 C 51.200 201.093,52.145 200.255,53.300 199.388 C 56.545 196.951,56.765 196.279,54.613 195.380 C 53.088 194.743,35.039 194.588,32.502 195.190 M115.200 195.332 C 113.513 195.771,113.373 195.912,112.968 197.594 C 112.598 199.130,112.347 199.443,111.229 199.763 C 108.628 200.509,98.994 211.019,99.270 212.810 C 99.405 213.682,102.400 211.486,102.400 210.516 C 102.400 209.347,109.896 202.520,111.420 202.300 C 116.436 201.579,131.619 202.345,132.852 203.382 C 134.054 204.394,134.107 204.400,141.331 204.371 C 148.657 204.341,150.005 204.217,155.752 203.039 C 164.398 201.268,185.896 202.024,180.487 203.910 C 179.855 204.130,178.855 204.758,178.265 205.305 C 177.661 205.864,176.451 206.417,175.496 206.570 C 174.563 206.719,173.440 207.075,173.000 207.363 C 172.560 207.650,170.954 208.197,169.431 208.578 C 167.908 208.960,166.264 209.532,165.778 209.851 C 165.293 210.169,163.209 210.610,161.147 210.831 C 159.086 211.051,156.590 211.536,155.600 211.908 C 153.993 212.511,151.074 212.597,128.404 212.709 C 112.306 212.788,103.226 212.972,103.604 213.211 C 103.956 213.433,112.557 213.595,124.600 213.606 C 135.896 213.616,146.339 213.804,148.000 214.027 C 152.713 214.659,159.437 214.113,160.636 213.001 C 161.273 212.412,162.342 212.023,163.799 211.852 C 165.010 211.709,167.125 211.171,168.500 210.655 C 169.875 210.139,171.859 209.588,172.908 209.432 C 173.958 209.276,175.128 208.833,175.508 208.447 C 175.889 208.061,176.931 207.536,177.824 207.279 C 178.717 207.023,179.874 206.360,180.394 205.807 C 180.914 205.253,181.649 204.800,182.028 204.800 C 182.723 204.800,185.200 202.296,185.200 201.594 C 185.200 201.386,185.875 200.868,186.700 200.443 C 187.525 200.018,188.830 199.011,189.600 198.206 L 191.000 196.742 189.878 195.771 L 188.755 194.800 177.478 194.806 C 164.778 194.813,164.669 194.834,163.366 197.583 C 162.512 199.385,161.758 199.921,160.000 199.974 C 159.450 199.991,158.512 200.260,157.915 200.571 C 155.736 201.708,152.136 202.103,143.523 202.151 C 134.533 202.202,132.571 201.876,134.543 200.659 C 138.591 198.160,139.593 196.601,137.911 195.423 C 136.788 194.636,118.163 194.562,115.200 195.332 M198.567 195.230 C 197.070 195.665,196.119 196.664,195.936 197.994 C 195.842 198.684,195.270 199.280,194.067 199.942 C 193.114 200.467,191.494 201.771,190.467 202.840 C 186.688 206.775,186.796 206.665,185.100 208.283 C 184.495 208.860,184.000 209.552,184.000 209.820 C 184.000 210.088,183.550 210.603,183.000 210.963 C 182.379 211.370,182.000 211.994,182.000 212.609 C 182.000 213.709,182.692 213.948,183.064 212.977 C 183.196 212.634,183.559 212.452,183.872 212.572 C 184.188 212.693,184.333 212.614,184.197 212.395 C 184.063 212.178,184.131 212.000,184.349 212.000 C 184.568 212.000,184.857 211.651,184.992 211.225 C 185.219 210.511,187.644 207.731,190.882 204.474 C 192.839 202.505,193.355 202.405,202.335 202.251 C 212.237 202.083,214.841 202.324,216.121 203.526 C 217.579 204.895,229.391 204.819,236.662 203.392 C 243.393 202.073,263.061 201.692,264.230 202.859 C 264.842 203.471,264.822 203.538,263.945 203.804 C 263.425 203.961,262.550 204.509,262.000 205.022 C 261.450 205.535,260.100 206.154,259.000 206.399 C 257.900 206.644,256.640 207.077,256.200 207.362 C 255.760 207.647,254.410 208.121,253.200 208.415 C 251.990 208.709,250.336 209.273,249.525 209.670 C 248.713 210.067,246.283 210.580,244.125 210.812 C 241.966 211.043,239.480 211.540,238.600 211.916 C 237.159 212.532,234.451 212.615,211.400 212.750 C 197.320 212.832,186.250 213.039,186.800 213.210 C 187.350 213.381,197.090 213.538,208.445 213.560 C 221.245 213.585,229.910 213.762,231.245 214.025 C 234.837 214.734,242.184 214.129,243.518 213.014 C 244.286 212.371,245.376 212.026,247.272 211.825 C 248.742 211.670,250.618 211.199,251.442 210.778 C 252.266 210.358,253.944 209.830,255.170 209.605 C 256.397 209.380,257.869 208.850,258.442 208.429 C 259.015 208.007,260.211 207.466,261.101 207.227 C 261.990 206.987,262.820 206.524,262.946 206.198 C 263.071 205.871,263.886 205.319,264.758 204.970 C 265.692 204.596,266.905 203.615,267.712 202.579 C 268.464 201.613,269.944 200.227,270.999 199.500 C 276.772 195.521,275.266 194.800,261.184 194.800 C 247.754 194.800,246.906 194.976,246.436 197.862 C 246.196 199.342,246.152 199.374,243.702 199.870 C 242.332 200.147,240.664 200.657,239.995 201.003 C 235.885 203.128,215.346 202.746,218.200 200.598 C 225.092 195.410,224.170 194.783,209.713 194.836 C 204.261 194.856,199.245 195.033,198.567 195.230 M53.200 196.757 C 53.200 197.483,51.730 197.600,42.600 197.600 C 33.414 197.600,31.787 197.468,32.226 196.758 C 32.516 196.289,53.200 196.288,53.200 196.757 M105.260 196.900 C 104.885 197.275,102.058 197.400,93.914 197.400 C 85.593 197.400,83.029 197.284,82.900 196.900 C 82.769 196.508,85.214 196.400,94.247 196.400 C 103.457 196.400,105.660 196.500,105.260 196.900 M136.800 196.775 C 136.800 197.779,116.433 197.902,116.100 196.900 C 115.969 196.509,118.198 196.400,126.367 196.400 C 132.602 196.400,136.800 196.551,136.800 196.775 M188.300 196.900 C 188.122 197.436,169.511 197.869,166.900 197.398 C 163.160 196.724,166.445 196.400,177.033 196.400 C 186.002 196.400,188.431 196.508,188.300 196.900 M219.500 196.900 C 219.227 197.722,198.800 197.827,198.800 197.007 C 198.800 196.480,200.174 196.400,209.233 196.400 C 217.402 196.400,219.631 196.509,219.500 196.900 M271.024 197.013 C 270.144 197.678,249.837 197.907,249.434 197.256 C 248.962 196.491,250.175 196.401,260.767 196.413 C 270.555 196.424,271.712 196.492,271.024 197.013 M390.800 216.605 C 390.800 216.938,389.833 217.829,388.650 218.585 C 386.399 220.025,386.008 220.576,385.988 222.333 C 385.956 225.232,382.006 227.048,380.102 225.039 C 378.670 223.528,373.366 223.660,371.800 225.246 C 371.209 225.844,374.015 228.265,375.880 228.768 C 378.398 229.446,378.872 229.969,378.412 231.564 C 377.739 233.901,373.251 237.600,371.089 237.600 C 370.524 237.600,369.484 238.086,368.779 238.679 C 366.332 240.738,358.427 240.441,357.844 238.267 C 356.784 234.318,360.542 231.624,363.047 234.537 C 364.333 236.032,365.441 236.347,368.121 235.981 C 372.891 235.328,373.719 231.200,369.080 231.200 C 366.694 231.200,364.800 229.887,364.800 228.235 C 364.800 227.450,368.944 223.349,370.571 222.524 C 372.774 221.406,373.293 220.000,371.502 220.000 C 371.268 220.000,371.296 220.233,371.570 220.564 C 372.091 221.192,370.027 221.911,369.190 221.394 C 368.624 221.044,369.466 220.000,370.316 220.000 C 370.655 220.000,370.819 219.886,370.679 219.746 C 370.189 219.256,368.191 220.459,367.398 221.723 C 366.006 223.940,364.488 224.399,358.544 224.399 C 348.958 224.401,348.919 227.264,358.501 227.577 C 359.154 227.598,359.148 227.700,358.415 229.068 C 357.301 231.146,357.166 231.187,351.454 231.194 L 346.308 231.200 344.761 232.892 C 342.604 235.252,343.141 235.713,348.372 235.990 C 352.664 236.217,353.497 236.553,352.100 237.493 C 351.605 237.825,351.200 238.326,351.200 238.606 C 351.200 239.474,350.154 239.600,342.955 239.600 C 334.261 239.600,333.843 239.111,338.462 234.342 C 343.118 229.535,348.159 224.015,348.521 223.326 C 348.732 222.927,349.286 222.289,349.752 221.909 C 350.737 221.106,350.460 221.008,349.037 221.656 C 348.487 221.906,347.960 222.401,347.865 222.756 C 347.770 223.110,347.666 222.680,347.632 221.800 C 347.577 220.352,347.525 220.278,347.086 221.018 C 346.819 221.468,345.918 222.458,345.084 223.218 C 342.825 225.277,341.114 227.009,335.600 232.819 C 329.528 239.216,328.815 239.767,327.029 239.432 L 325.696 239.182 326.359 237.891 C 326.724 237.181,328.952 234.636,331.311 232.235 C 333.670 229.835,335.600 227.754,335.600 227.611 C 335.600 227.468,336.462 226.552,337.517 225.576 C 339.996 223.278,341.397 221.051,340.702 220.513 C 339.437 219.534,339.121 219.484,339.660 220.348 C 340.070 221.005,340.077 221.283,339.690 221.670 C 339.420 221.940,339.200 222.484,339.200 222.880 C 339.200 223.381,338.896 223.600,338.200 223.600 C 337.650 223.600,337.065 223.645,336.900 223.700 C 336.735 223.755,336.492 222.990,336.360 222.000 L 336.120 220.200 336.060 221.919 C 335.999 223.680,335.833 223.895,331.400 227.971 C 330.960 228.375,329.927 228.988,329.104 229.331 C 328.048 229.772,327.404 230.403,326.914 231.478 C 325.916 233.664,321.225 239.178,320.129 239.454 C 317.259 240.174,316.643 238.015,319.053 235.684 C 320.414 234.367,320.381 232.111,318.995 231.763 C 316.358 231.101,314.609 231.882,311.122 235.277 C 306.951 239.338,306.344 239.739,304.862 239.414 L 303.691 239.156 304.347 237.878 C 304.988 236.630,305.760 235.760,312.381 228.831 C 314.151 226.978,315.600 225.266,315.600 225.026 C 315.600 224.786,315.993 224.412,316.474 224.195 C 317.522 223.722,317.726 223.208,317.186 222.400 C 316.849 221.895,316.619 221.988,315.735 222.989 C 314.749 224.106,314.462 224.191,311.018 224.389 C 307.169 224.610,305.735 225.299,304.010 227.753 C 303.686 228.214,302.066 229.961,300.410 231.634 C 298.755 233.308,296.816 235.290,296.103 236.038 C 293.762 238.496,292.140 239.600,290.869 239.600 C 288.319 239.600,289.022 238.428,296.140 230.817 C 301.392 225.201,301.445 225.083,299.100 224.296 C 297.466 223.747,297.405 223.667,297.533 222.243 C 297.694 220.462,297.074 219.600,295.631 219.600 C 294.174 219.600,293.600 220.286,293.600 222.026 C 293.600 225.314,290.793 226.775,287.821 225.033 C 285.335 223.577,281.240 223.723,280.243 225.305 C 279.617 226.297,281.367 227.909,284.055 228.816 C 286.704 229.710,287.312 231.732,285.450 233.458 C 284.897 233.971,284.300 234.618,284.122 234.895 C 283.681 235.586,279.700 237.512,278.073 237.822 C 277.343 237.962,276.650 238.325,276.533 238.630 C 275.394 241.599,264.876 239.893,264.813 236.728 C 264.762 234.157,269.718 232.372,270.875 234.545 C 272.374 237.359,280.000 236.379,280.000 233.373 C 280.000 232.131,279.290 231.686,276.384 231.108 C 271.218 230.080,272.375 226.669,279.611 221.595 L 280.473 220.990 279.544 220.195 C 278.823 219.579,278.737 219.559,279.164 220.110 C 279.818 220.954,279.626 221.197,277.814 221.820 C 276.494 222.273,276.437 222.252,276.297 221.246 C 276.173 220.348,276.106 220.302,275.825 220.922 C 275.645 221.319,274.846 222.252,274.049 222.996 C 271.811 225.083,269.311 227.568,265.631 231.363 C 261.830 235.282,259.591 236.937,257.107 237.662 C 256.168 237.936,254.891 238.529,254.269 238.979 C 253.081 239.837,247.899 240.363,245.804 239.837 C 243.287 239.205,243.296 235.098,245.820 233.113 C 246.359 232.689,246.804 232.130,246.809 231.871 C 246.813 231.612,247.472 230.860,248.273 230.200 C 253.125 226.199,257.593 220.000,255.625 220.000 C 255.405 220.000,255.312 220.228,255.419 220.506 C 255.605 220.989,252.200 224.800,251.583 224.800 C 251.420 224.800,250.999 225.520,250.647 226.400 C 249.731 228.689,249.639 228.457,249.752 224.131 C 249.841 220.730,249.947 220.225,250.627 219.959 C 251.231 219.723,251.257 219.650,250.749 219.628 C 249.709 219.583,249.186 220.561,249.240 222.447 C 249.295 224.317,248.745 226.139,247.985 226.609 C 247.730 226.767,247.314 227.380,247.060 227.972 C 246.628 228.983,239.217 235.600,238.517 235.600 C 238.339 235.600,237.376 236.035,236.378 236.567 C 235.379 237.098,233.850 237.661,232.981 237.817 C 232.111 237.974,231.067 238.394,230.659 238.751 C 229.901 239.416,220.345 239.972,218.940 239.432 C 217.846 239.013,220.399 235.662,226.249 229.839 C 232.106 224.009,234.191 220.988,233.026 220.021 C 232.432 219.529,230.800 220.059,230.800 220.744 C 230.800 220.918,227.842 224.107,224.226 227.830 C 220.610 231.554,217.405 234.870,217.103 235.200 C 210.838 242.059,206.612 240.155,209.874 231.942 C 210.613 230.081,210.452 226.800,209.700 228.400 C 209.441 228.950,208.182 230.300,206.902 231.400 C 205.621 232.500,203.956 234.120,203.202 235.000 C 199.255 239.604,194.545 241.525,196.553 237.712 C 197.164 236.550,197.904 235.716,203.562 229.812 C 209.344 223.778,211.264 221.267,210.784 220.370 C 210.039 218.978,210.830 218.281,196.064 233.342 C 191.624 237.870,189.670 239.600,188.997 239.600 C 185.637 239.600,186.306 238.330,193.601 230.863 C 195.032 229.398,197.143 227.103,198.294 225.763 C 202.185 221.230,202.476 220.741,201.605 220.203 C 201.382 220.065,201.308 220.217,201.436 220.549 C 201.574 220.909,201.260 221.405,200.631 221.816 C 200.064 222.188,199.600 222.746,199.600 223.056 C 199.600 223.366,199.145 223.793,198.590 224.004 C 198.034 224.215,197.468 224.680,197.331 225.036 C 197.194 225.393,195.624 227.164,193.841 228.974 C 192.058 230.783,190.023 232.911,189.317 233.702 C 188.611 234.494,187.780 235.289,187.469 235.471 C 186.162 236.232,185.164 239.043,185.948 239.753 C 187.128 240.821,190.447 240.619,191.762 239.400 C 192.356 238.850,193.009 238.400,193.213 238.400 C 193.417 238.400,193.698 237.950,193.836 237.400 C 194.241 235.786,195.193 236.133,194.923 237.797 C 194.482 240.516,198.161 241.594,200.385 239.397 C 202.055 237.748,204.492 235.255,206.303 233.344 C 208.408 231.123,208.645 231.516,207.877 235.960 C 207.327 239.146,207.334 239.249,208.145 239.817 C 209.439 240.723,213.048 240.587,213.893 239.600 C 214.270 239.160,214.812 238.800,215.097 238.800 C 215.383 238.800,215.822 238.350,216.073 237.800 C 216.677 236.474,217.200 236.531,217.200 237.924 C 217.200 240.409,217.710 240.600,224.334 240.600 C 229.836 240.600,230.429 240.529,231.491 239.744 C 232.127 239.273,233.652 238.680,234.879 238.425 C 236.107 238.170,237.429 237.610,237.817 237.181 C 238.206 236.751,238.828 236.400,239.200 236.400 C 239.572 236.400,240.218 236.022,240.637 235.559 C 241.964 234.092,243.600 233.421,243.600 234.343 C 243.600 234.787,243.242 235.200,242.745 235.330 C 241.229 235.727,242.751 239.664,244.733 240.472 C 246.849 241.334,254.981 240.588,255.809 239.455 C 256.046 239.131,256.919 238.739,257.748 238.583 C 258.578 238.428,259.765 237.873,260.386 237.350 C 261.007 236.828,261.796 236.400,262.138 236.400 C 262.480 236.400,262.928 236.100,263.134 235.733 C 263.426 235.211,263.571 235.450,263.800 236.833 C 264.217 239.348,264.614 239.911,266.305 240.380 C 269.548 241.281,276.896 240.704,277.792 239.479 C 278.019 239.168,279.220 238.619,280.459 238.258 C 281.699 237.898,282.817 237.332,282.944 237.001 C 283.071 236.671,283.406 236.400,283.687 236.400 C 283.969 236.399,284.875 235.704,285.699 234.854 C 288.667 231.795,287.971 228.000,284.443 228.000 C 284.048 228.000,283.381 227.619,282.962 227.153 C 282.543 226.687,281.840 226.169,281.400 226.003 C 280.726 225.748,280.852 225.630,282.200 225.252 C 284.726 224.545,285.903 224.681,286.610 225.759 C 287.758 227.512,292.333 227.576,293.301 225.853 C 293.565 225.384,293.875 223.920,293.990 222.600 C 294.197 220.234,294.218 220.198,295.503 220.074 C 297.211 219.910,297.601 220.862,296.457 222.408 L 295.606 223.559 296.492 224.180 C 296.979 224.521,297.662 224.800,298.009 224.800 C 299.391 224.800,299.600 225.677,298.479 226.771 C 293.066 232.055,288.007 237.897,288.001 238.871 C 287.993 240.414,292.326 240.996,293.786 239.649 C 297.478 236.243,300.800 232.837,300.800 232.458 C 300.800 232.206,301.025 232.000,301.300 231.999 C 301.988 231.998,304.800 228.950,304.800 228.205 C 304.800 227.872,304.974 227.600,305.186 227.600 C 305.398 227.600,306.187 227.060,306.939 226.400 C 308.244 225.254,312.471 224.604,313.291 225.424 C 313.556 225.690,312.463 227.999,312.071 228.002 C 311.596 228.005,308.000 231.432,308.000 231.882 C 308.000 232.120,307.728 232.419,307.397 232.546 C 307.065 232.673,306.603 233.195,306.370 233.705 C 306.138 234.215,305.569 234.805,305.107 235.016 C 304.644 235.227,304.071 235.744,303.833 236.165 C 303.595 236.586,303.085 237.261,302.700 237.665 C 301.204 239.236,302.400 240.400,305.511 240.400 L 307.764 240.400 310.882 237.214 C 314.283 233.740,315.043 233.200,316.541 233.200 C 318.747 233.200,319.493 234.175,318.000 235.107 C 317.560 235.382,317.200 235.877,317.200 236.207 C 317.200 236.538,316.840 237.116,316.400 237.493 C 314.627 239.011,315.748 240.438,318.733 240.461 C 321.377 240.481,322.083 240.218,322.874 238.914 L 323.536 237.822 324.029 238.903 C 324.974 240.979,328.969 241.169,330.966 239.233 C 332.342 237.899,333.200 237.652,333.200 238.591 C 333.200 240.124,335.100 240.594,341.898 240.741 C 349.947 240.916,350.924 240.750,352.653 238.916 C 355.327 236.081,354.149 234.800,348.869 234.800 C 344.781 234.800,344.608 234.672,346.579 233.100 C 347.916 232.033,348.107 232.000,352.925 232.000 C 358.607 232.000,359.752 231.526,360.230 228.978 C 360.611 226.950,359.961 226.400,357.184 226.400 C 354.640 226.400,353.485 226.110,353.826 225.558 C 354.134 225.059,365.090 225.098,365.400 225.600 C 365.536 225.820,365.386 226.000,365.066 226.000 C 364.312 226.000,364.000 226.865,364.000 228.953 C 364.000 231.096,364.413 231.484,367.309 232.053 C 369.577 232.499,370.853 233.625,370.058 234.477 C 369.250 235.344,365.204 234.921,364.228 233.868 C 362.864 232.396,357.205 232.295,357.198 233.743 C 357.196 233.994,356.921 234.726,356.586 235.369 C 355.805 236.867,356.991 239.788,358.634 240.413 C 361.077 241.342,369.132 240.672,369.889 239.477 C 370.060 239.207,371.082 238.758,372.159 238.479 C 373.237 238.200,374.646 237.528,375.290 236.986 C 375.934 236.444,376.589 236.000,376.745 236.000 C 376.901 236.000,377.666 235.145,378.444 234.100 C 380.937 230.753,380.787 229.181,377.893 228.331 C 376.962 228.057,375.503 227.334,374.652 226.725 L 373.103 225.617 374.252 225.174 C 375.975 224.509,378.738 225.016,379.835 226.200 C 382.298 228.858,388.331 225.124,387.034 221.745 C 386.660 220.770,387.689 219.479,389.547 218.588 C 390.948 217.916,392.024 216.000,391.000 216.000 C 390.890 216.000,390.800 216.272,390.800 216.605 M393.062 218.283 C 392.298 218.480,391.302 219.193,389.776 220.636 C 385.644 224.543,391.728 233.388,396.663 230.648 C 397.288 230.300,398.295 229.793,398.900 229.520 C 400.114 228.973,400.536 226.800,399.429 226.800 C 397.410 226.800,396.891 223.398,398.800 222.678 C 400.928 221.874,400.444 220.420,397.610 219.100 C 395.304 218.026,394.570 217.894,393.062 218.283 M223.706 220.433 C 224.148 221.151,223.968 221.460,222.000 223.365 C 220.790 224.536,219.170 226.230,218.400 227.131 C 216.183 229.722,215.485 228.347,217.354 225.071 C 218.313 223.390,219.008 220.000,218.394 220.000 C 218.212 220.000,217.942 220.585,217.793 221.300 C 217.644 222.015,217.159 223.230,216.715 224.000 C 215.656 225.835,215.280 229.637,216.091 230.310 C 216.579 230.714,217.250 230.172,220.070 227.098 C 224.899 221.835,225.564 220.532,223.775 219.846 C 223.309 219.667,223.297 219.769,223.706 220.433 M262.768 220.460 C 262.515 220.933,260.033 223.593,257.254 226.370 C 254.474 229.147,251.615 232.170,250.900 233.087 L 249.599 234.754 250.489 235.377 C 251.420 236.029,253.071 236.166,255.104 235.759 C 256.865 235.407,266.811 225.575,268.866 222.155 C 269.569 220.985,269.573 220.876,268.932 220.355 C 268.334 219.868,268.282 219.884,268.508 220.489 C 268.693 220.982,268.058 221.929,266.283 223.811 C 257.408 233.219,255.521 234.800,253.169 234.800 C 251.244 234.800,251.225 234.525,253.000 232.400 C 253.770 231.478,254.400 230.604,254.400 230.457 C 254.400 230.310,254.805 230.012,255.300 229.795 C 255.795 229.578,256.255 229.013,256.323 228.539 C 256.392 228.054,256.916 227.479,257.523 227.222 C 258.115 226.971,259.050 226.120,259.600 225.331 C 260.150 224.542,261.074 223.425,261.654 222.848 C 262.234 222.272,262.827 221.406,262.973 220.925 C 263.119 220.444,263.634 219.974,264.119 219.880 L 265.000 219.709 264.114 219.654 C 263.579 219.622,263.046 219.940,262.768 220.460 M210.400 220.800 C 210.400 221.244,210.133 221.600,209.800 221.600 C 209.191 221.600,208.979 220.754,209.467 220.267 C 209.974 219.760,210.400 220.003,210.400 220.800 M232.800 220.776 C 232.800 221.690,232.169 222.198,231.792 221.587 C 231.456 221.044,231.848 220.000,232.387 220.000 C 232.614 220.000,232.800 220.349,232.800 220.776 M395.000 221.200 C 394.864 221.420,394.313 221.600,393.776 221.600 C 393.239 221.600,392.800 221.420,392.800 221.200 C 392.800 220.980,393.351 220.800,394.024 220.800 C 394.737 220.800,395.144 220.967,395.000 221.200 M7.064 221.929 C 6.105 222.989,6.246 223.354,7.233 222.367 C 7.692 221.908,7.991 221.457,7.898 221.364 C 7.805 221.271,7.430 221.525,7.064 221.929 M208.146 223.687 C 207.802 224.243,207.221 223.610,207.473 222.954 C 207.659 222.469,207.781 222.446,208.029 222.847 C 208.204 223.130,208.257 223.508,208.146 223.687 M391.124 224.269 C 390.977 226.013,390.137 226.485,389.772 225.029 C 389.444 223.725,389.793 222.800,390.612 222.800 C 391.101 222.800,391.220 223.140,391.124 224.269 M346.800 223.492 C 346.470 223.617,346.068 223.918,345.906 224.160 C 345.725 224.431,345.610 224.332,345.606 223.900 C 345.602 223.430,345.895 223.210,346.500 223.232 C 347.101 223.253,347.201 223.339,346.800 223.492 M238.320 224.392 C 235.816 224.627,236.736 223.862,228.514 232.551 C 226.026 235.179,226.391 235.847,230.225 235.686 C 233.741 235.538,235.373 234.585,240.525 229.673 C 244.349 226.028,243.463 223.908,238.320 224.392 M322.234 224.407 C 320.264 225.014,317.919 227.576,318.657 228.315 C 319.809 229.466,324.964 229.083,326.553 227.729 C 327.281 227.108,328.184 226.420,328.560 226.200 C 330.572 225.021,325.192 223.496,322.234 224.407 M206.000 225.400 C 206.000 225.730,205.708 226.000,205.351 226.000 C 204.820 226.000,204.792 225.891,205.200 225.400 C 205.474 225.070,205.766 224.800,205.849 224.800 C 205.932 224.800,206.000 225.070,206.000 225.400 M228.394 225.500 C 228.378 226.299,227.710 226.865,227.483 226.273 C 227.358 225.946,227.363 225.571,227.494 225.439 C 227.831 225.103,228.401 225.141,228.394 225.500 M241.707 225.440 C 242.304 226.037,239.076 230.400,238.036 230.400 C 237.806 230.400,237.334 230.835,236.985 231.366 C 236.637 231.897,235.688 232.626,234.876 232.986 C 234.064 233.346,232.950 233.898,232.400 234.214 C 231.850 234.530,230.500 234.784,229.400 234.778 C 227.400 234.768,227.400 234.768,228.500 234.171 C 229.105 233.843,229.600 233.428,229.600 233.249 C 229.600 232.973,232.618 229.560,234.596 227.600 C 234.929 227.270,235.594 226.595,236.073 226.100 C 236.919 225.226,241.013 224.746,241.707 225.440 M328.000 225.600 C 328.000 225.820,327.744 226.000,327.431 226.000 C 327.118 226.000,326.327 226.450,325.673 227.000 C 324.688 227.829,324.065 228.000,322.029 228.000 L 319.573 228.000 320.973 226.600 C 322.388 225.185,328.000 224.386,328.000 225.600 M272.629 227.500 C 272.676 230.555,273.067 231.558,274.306 231.809 C 276.950 232.342,277.399 232.607,277.527 233.707 L 277.653 234.800 274.984 234.800 C 272.614 234.800,272.227 234.688,271.529 233.800 C 270.933 233.043,270.368 232.800,269.204 232.800 C 266.420 232.800,266.304 232.525,268.231 230.472 C 269.196 229.442,269.989 228.396,269.993 228.147 C 269.997 227.897,270.373 227.596,270.830 227.476 C 271.286 227.357,271.757 226.886,271.876 226.430 C 272.247 225.013,272.599 225.514,272.629 227.500 M343.600 227.000 C 343.600 227.745,343.389 228.000,342.771 228.000 C 342.018 228.000,342.000 227.943,342.571 227.371 C 342.917 227.026,343.200 226.576,343.200 226.371 C 343.200 226.167,343.290 226.000,343.400 226.000 C 343.510 226.000,343.600 226.450,343.600 227.000 M395.178 227.158 C 395.482 227.726,395.427 228.045,394.961 228.432 C 394.193 229.070,393.585 228.342,393.896 227.156 C 394.148 226.191,394.660 226.192,395.178 227.158 M203.994 227.500 C 203.978 228.299,203.310 228.865,203.083 228.273 C 202.958 227.946,202.963 227.571,203.094 227.439 C 203.431 227.103,204.001 227.141,203.994 227.500 M226.282 228.192 C 225.945 228.555,225.718 228.580,225.526 228.275 C 225.141 227.659,225.519 227.194,226.195 227.453 C 226.642 227.625,226.661 227.784,226.282 228.192 M330.900 230.265 C 330.625 230.376,330.400 230.715,330.400 231.020 C 330.400 231.324,329.860 232.125,329.200 232.800 C 328.540 233.475,328.000 234.201,328.000 234.414 C 328.000 234.626,327.820 234.800,327.600 234.800 C 327.380 234.800,327.200 234.273,327.200 233.629 C 327.200 232.379,328.088 231.200,329.029 231.200 C 329.343 231.200,329.600 230.930,329.600 230.600 C 329.600 230.235,329.953 230.012,330.500 230.032 C 330.995 230.049,331.175 230.154,330.900 230.265 M339.326 232.500 C 339.132 232.835,338.000 232.916,338.000 232.595 C 338.000 231.733,339.007 230.848,339.245 231.501 C 339.385 231.886,339.422 232.335,339.326 232.500 M3.700 231.476 C 4.085 231.576,4.715 231.576,5.100 231.476 C 5.485 231.375,5.170 231.293,4.400 231.293 C 3.630 231.293,3.315 231.375,3.700 231.476 M334.652 237.008 C 334.517 237.362,334.216 237.533,333.983 237.390 C 333.693 237.211,333.710 236.949,334.038 236.555 C 334.619 235.854,334.990 236.128,334.652 237.008 " stroke="none" fill="#a4adcf" fill-rule="evenodd"></path><path id="path4" d="M99.663 213.419 C 98.619 214.398,75.020 215.059,68.400 214.294 C 66.750 214.104,55.500 213.865,43.400 213.764 C 30.707 213.658,20.909 213.415,20.240 213.190 C 18.300 212.538,17.008 212.727,16.075 213.800 C 15.597 214.350,14.857 214.800,14.432 214.800 C 13.476 214.800,12.144 216.433,11.792 218.036 C 11.611 218.860,11.008 219.561,9.864 220.278 C 8.174 221.338,6.400 223.004,6.400 223.532 C 6.400 224.308,7.728 225.566,8.704 225.714 C 9.307 225.805,8.846 225.907,7.679 225.940 C 6.512 225.973,4.307 226.284,2.779 226.632 L 0.000 227.264 0.000 229.003 L 0.000 230.742 2.300 231.071 C 3.565 231.252,45.582 231.400,95.671 231.400 L 186.741 231.400 187.846 230.575 C 190.547 228.559,190.999 226.071,188.686 225.956 C 188.199 225.932,188.610 225.757,189.600 225.567 C 190.590 225.377,191.800 225.125,192.288 225.006 C 192.786 224.885,193.876 223.760,194.769 222.445 C 196.758 219.517,198.214 218.941,200.974 219.990 C 202.368 220.520,202.275 221.014,200.334 223.374 L 198.669 225.400 200.734 223.415 C 201.870 222.323,202.895 221.130,203.012 220.763 C 203.342 219.722,205.610 219.433,206.496 220.318 C 207.204 221.026,207.194 221.099,206.190 222.624 C 205.307 223.966,205.474 223.858,207.317 221.900 C 209.661 219.409,210.153 219.192,210.784 220.371 C 211.112 220.984,210.984 221.415,210.159 222.471 C 209.587 223.202,209.934 222.943,210.928 221.896 C 213.779 218.895,217.168 218.686,217.236 221.508 L 217.272 223.000 217.673 221.601 C 218.189 219.803,218.530 219.614,221.271 219.606 C 224.637 219.597,225.323 220.399,223.966 222.753 C 223.507 223.549,223.423 223.840,223.781 223.400 C 226.713 219.788,227.694 219.186,229.024 220.181 C 229.789 220.753,229.787 220.787,228.895 222.481 L 227.989 224.200 229.380 222.600 C 230.144 221.720,230.777 220.871,230.785 220.714 C 230.820 220.045,232.448 219.542,233.026 220.021 C 233.916 220.760,233.715 221.639,232.300 223.200 C 231.585 223.988,231.964 223.677,233.142 222.508 C 236.059 219.614,236.116 219.595,241.474 219.640 C 247.444 219.690,248.072 219.863,248.677 221.616 L 249.155 223.000 249.177 221.780 C 249.209 220.059,249.856 219.600,252.254 219.600 C 256.661 219.600,257.158 220.346,254.748 223.344 C 253.392 225.032,253.616 224.874,255.999 222.460 C 258.649 219.778,259.010 219.542,260.132 219.766 C 261.918 220.124,262.135 220.811,260.883 222.151 L 259.800 223.310 260.920 222.596 C 261.537 222.203,262.306 221.368,262.631 220.741 C 263.340 219.369,267.053 219.062,268.729 220.236 L 269.637 220.871 268.801 222.336 C 268.042 223.664,268.152 223.600,269.983 221.657 C 271.749 219.781,272.139 219.548,273.101 219.785 C 274.664 220.171,275.079 220.685,274.496 221.511 C 272.865 223.824,272.692 224.571,274.145 223.031 C 274.945 222.182,275.600 221.355,275.600 221.193 C 275.600 219.980,278.870 219.372,279.810 220.411 C 280.437 221.104,280.389 221.197,278.937 222.115 C 278.091 222.649,276.500 223.934,275.400 224.970 C 273.603 226.663,273.675 226.628,276.105 224.627 C 277.593 223.402,279.072 222.400,279.391 222.400 C 279.711 222.400,280.597 221.851,281.361 221.180 C 282.349 220.313,283.463 219.828,285.220 219.501 L 287.689 219.042 286.145 218.493 C 284.850 218.032,262.740 217.916,149.425 217.776 C 18.721 217.615,13.083 217.559,13.778 216.435 C 14.109 215.900,388.299 215.822,389.143 216.356 C 390.850 217.438,380.560 219.311,377.839 218.413 C 375.888 217.769,291.708 217.732,291.065 218.375 C 290.831 218.609,290.181 218.819,289.620 218.843 C 288.952 218.871,289.222 219.021,290.400 219.278 C 292.658 219.771,292.880 219.992,293.222 222.092 L 293.500 223.800 293.550 222.180 C 293.609 220.279,294.156 219.600,295.631 219.600 C 297.074 219.600,297.694 220.462,297.533 222.243 C 297.446 223.210,297.577 223.762,297.910 223.832 C 298.190 223.891,298.249 223.853,298.039 223.746 C 297.387 223.415,298.607 220.635,299.637 220.106 C 300.637 219.593,313.332 219.378,315.072 219.845 C 316.413 220.205,316.521 221.166,315.387 222.652 C 314.151 224.274,314.444 224.441,315.820 222.900 C 316.718 221.895,316.838 221.860,317.220 222.498 C 317.668 223.248,318.078 223.062,319.528 221.455 C 319.898 221.046,320.438 220.461,320.729 220.155 C 321.354 219.499,332.088 219.349,333.732 219.974 C 334.385 220.222,334.922 220.930,335.326 222.074 L 335.937 223.800 335.968 222.114 C 336.014 219.701,338.211 218.752,340.324 220.232 L 341.226 220.864 340.346 222.332 C 339.563 223.640,339.683 223.570,341.442 221.692 C 343.229 219.785,343.538 219.608,344.683 219.837 C 346.360 220.172,346.588 220.956,345.386 222.253 C 344.087 223.654,344.140 223.816,345.555 222.770 C 346.190 222.301,346.906 221.485,347.146 220.958 C 347.740 219.655,350.400 219.536,350.400 220.813 C 350.400 221.259,350.123 221.731,349.785 221.861 C 349.447 221.991,348.882 222.660,348.529 223.348 C 348.045 224.291,348.473 223.984,350.266 222.100 L 352.645 219.600 359.243 219.600 C 366.028 219.600,366.800 219.768,366.800 221.244 C 366.800 221.621,366.246 222.395,365.569 222.964 C 364.892 223.534,364.519 224.000,364.739 224.000 C 365.375 224.000,367.534 222.038,367.792 221.225 C 368.132 220.153,370.011 219.472,371.288 219.957 C 372.892 220.567,372.955 221.117,371.520 221.992 C 369.968 222.938,370.167 223.027,372.051 222.229 C 372.793 221.915,373.616 221.302,373.880 220.866 C 374.947 219.108,382.833 218.528,384.301 220.100 C 385.583 221.474,385.839 223.062,384.947 224.116 L 384.200 225.000 385.100 224.238 C 385.632 223.787,386.000 223.025,386.000 222.371 C 386.000 220.582,386.383 220.036,388.650 218.585 C 390.783 217.221,391.190 216.437,390.408 215.200 C 390.073 214.670,380.870 214.593,311.914 214.540 C 257.078 214.497,233.093 214.348,231.427 214.040 C 229.907 213.758,221.707 213.595,208.627 213.586 C 192.545 213.575,187.702 213.452,185.857 213.012 C 183.580 212.468,183.489 212.478,182.657 213.365 C 181.677 214.409,156.613 215.177,151.400 214.322 C 150.080 214.106,138.830 213.794,126.400 213.629 C 113.970 213.464,103.079 213.153,102.198 212.936 C 100.790 212.591,100.482 212.650,99.663 213.419 M392.800 221.257 C 392.800 221.679,394.682 221.716,394.937 221.300 C 395.038 221.135,394.599 220.981,393.961 220.957 C 393.322 220.934,392.800 221.069,392.800 221.257 M192.532 222.967 C 192.926 223.993,192.260 224.000,100.267 223.972 C 12.388 223.945,5.926 223.869,8.610 222.895 C 10.627 222.163,192.251 222.234,192.532 222.967 M389.754 223.377 C 389.632 223.694,389.617 224.279,389.720 224.677 C 389.842 225.150,389.923 225.020,389.954 224.300 C 390.018 222.773,390.714 222.918,390.911 224.500 C 391.069 225.780,391.073 225.777,391.136 224.300 C 391.202 222.758,390.238 222.114,389.754 223.377 M397.867 223.067 C 396.884 224.049,398.114 226.807,399.529 226.794 C 399.990 226.790,399.887 226.628,399.200 226.278 C 398.405 225.872,398.200 225.463,398.200 224.283 C 398.200 223.467,398.185 222.800,398.167 222.800 C 398.148 222.800,398.013 222.920,397.867 223.067 M283.400 223.803 C 284.314 224.121,286.729 224.209,286.548 223.916 C 286.441 223.742,285.598 223.614,284.676 223.632 C 283.754 223.649,283.180 223.726,283.400 223.803 M378.000 223.893 C 378.550 223.994,379.270 224.284,379.600 224.538 C 380.122 224.940,380.129 224.909,379.651 224.300 C 379.348 223.914,378.630 223.624,378.051 223.654 L 377.000 223.709 378.000 223.893 M237.900 224.282 C 238.395 224.378,239.205 224.378,239.700 224.282 C 240.195 224.187,239.790 224.109,238.800 224.109 C 237.810 224.109,237.405 224.187,237.900 224.282 M309.891 224.289 C 310.601 224.377,311.861 224.379,312.691 224.292 C 313.521 224.205,312.940 224.133,311.400 224.131 C 309.860 224.129,309.181 224.200,309.891 224.289 M356.517 224.297 C 358.011 224.374,360.351 224.374,361.717 224.296 C 363.082 224.218,361.860 224.155,359.000 224.155 C 356.140 224.156,355.022 224.220,356.517 224.297 M299.829 226.762 L 298.658 228.200 300.009 226.913 C 300.751 226.205,301.278 225.558,301.179 225.475 C 301.081 225.392,300.473 225.971,299.829 226.762 M188.157 227.439 C 188.921 227.732,188.366 228.359,186.681 229.105 C 184.778 229.947,5.073 229.816,4.229 228.971 C 3.364 228.107,3.441 227.686,4.500 227.482 C 5.900 227.213,187.455 227.170,188.157 227.439 M192.378 231.900 L 191.000 233.400 192.500 232.022 C 193.896 230.738,194.184 230.400,193.878 230.400 C 193.812 230.400,193.137 231.075,192.378 231.900 M354.900 231.076 C 355.285 231.176,355.915 231.176,356.300 231.076 C 356.685 230.975,356.370 230.893,355.600 230.893 C 354.830 230.893,354.515 230.975,354.900 231.076 M273.300 236.276 C 273.685 236.376,274.315 236.376,274.700 236.276 C 275.085 236.175,274.770 236.093,274.000 236.093 C 273.230 236.093,272.915 236.175,273.300 236.276 " stroke="none" fill="#db8c94" fill-rule="evenodd"></path></g></svg>